<svg width="400" height="96" viewBox="0 0 621 96" fill="none" xmlns="http://www.w3.org/2000/svg">
<path d="M30.7778 96L0 4H13.5475L41.8263 88.9029H34.9868L64.3178 4H76.4185L105.092 88.9029H98.5154L127.189 4H139.684L108.906 96H95.0956L68.2637 17.2743H71.8149L44.8515 96H30.7778Z" fill="white"/>
<path d="M167.743 43.6914H215.093V54.8629H167.743V43.6914ZM168.927 84.5657H222.591V96H155.774V4H220.749V15.4343H168.927V84.5657Z" fill="white"/>
<path d="M243.888 96V4H285.188C295.798 4 303.953 6.14667 309.653 10.44C315.352 14.6457 318.202 20.4286 318.202 27.7886C318.202 32.7829 317.062 36.9886 314.782 40.4057C312.59 43.8229 309.609 46.4514 305.838 48.2914C302.068 50.1314 297.99 51.0514 293.606 51.0514L295.974 47.1086C301.235 47.1086 305.882 48.0286 309.916 49.8686C313.949 51.7086 317.15 54.4248 319.517 58.0171C321.885 61.5219 323.069 65.9029 323.069 71.16C323.069 79.0457 320.087 85.179 314.125 89.56C308.25 93.8533 299.481 96 287.819 96H243.888ZM257.041 85.3543H287.293C294.571 85.3543 300.139 84.1276 303.997 81.6743C307.855 79.221 309.784 75.3657 309.784 70.1086C309.784 64.7638 307.855 60.8648 303.997 58.4114C300.139 55.9581 294.571 54.7314 287.293 54.7314H255.857V44.0857H284.004C290.669 44.0857 295.842 42.859 299.525 40.4057C303.208 37.9524 305.049 34.2724 305.049 29.3657C305.049 24.459 303.208 20.7791 299.525 18.3257C295.842 15.8724 290.669 14.6457 284.004 14.6457H257.041V85.3543Z" fill="white"/>
<path d="M465.318 43.6914H512.668V54.8629H465.318V43.6914ZM466.501 84.5657H520.165V96H453.348V4H518.324V15.4343H466.501V84.5657Z" fill="white"/>
<path d="M566.747 96L526.236 4H540.441L577.664 88.9029H569.509L606.995 4H620.148L579.769 96H566.747Z" fill="white"/>
<path d="M378.004 11.0993L426.685 48.1171L378.004 85.135" stroke="#1CD679" stroke-width="15" stroke-linecap="square"/>
<path d="M28.1097 4H45.7177L76.7907 95.2769H59.1827L28.1097 4Z" fill="#1CD679"/>
</svg>
