<svg width="601" height="599" viewBox="0 0 601 599" fill="none" xmlns="http://www.w3.org/2000/svg">
<g clip-path="url(#clip0_613_169)">
<path d="M66.9531 164.766L67.2471 313.849C70.0052 357.522 83.2189 399.513 106.523 438.659C125.888 471.185 152.243 501.96 184.855 530.126C227.57 567.017 270.047 589.775 288.665 598.866C307.283 589.775 349.76 567.017 392.475 530.126C425.088 501.958 451.442 471.184 470.807 438.659C494.111 399.513 507.325 357.523 510.083 313.849L510.377 164.766L407.908 141.084C329.319 122.921 248.012 122.921 169.422 141.084L66.9531 164.766Z" fill="#333333"/>
<path d="M288.661 571.361C268.799 560.858 234.774 540.852 200.875 511.576C170.259 485.133 145.6 456.381 127.584 426.121C106.42 390.571 94.3672 352.527 91.7561 313.034L91.502 184.254L174.939 164.97C212.242 156.349 250.504 151.977 288.661 151.977C326.819 151.977 365.08 156.349 402.383 164.97L485.821 184.254L485.568 313.034C482.956 352.528 470.904 390.57 449.739 426.121C431.722 456.381 407.063 485.132 376.448 511.576C342.551 540.851 308.524 560.858 288.661 571.361Z" fill="white"/>
<path d="M288.665 555.437C270.095 545.188 239.882 526.751 210.034 500.973C180.559 475.516 156.869 447.921 139.624 418.953C119.682 385.457 108.291 349.658 105.766 312.55L105.535 195.387L178.096 178.618C214.369 170.234 251.57 165.984 288.665 165.984C325.759 165.984 362.96 170.234 399.232 178.618L471.794 195.387L471.563 312.55C469.038 349.659 457.648 385.457 437.705 418.954C420.462 447.917 396.771 475.513 367.295 500.973C337.446 526.751 307.233 545.188 288.665 555.437Z" fill="#333333"/>
<path d="M301.758 531.54C310.876 525.896 320.936 519.237 331.414 511.578V445.947H301.758V531.54Z" fill="#7C7C7C"/>
<path d="M273.204 445.947H245.984V511.629C255.534 518.608 264.746 524.766 273.204 530.07V445.947Z" fill="#7C7C7C"/>
<path d="M359.965 445.946V488.761C375.644 475.052 389.575 460.74 401.636 445.946H359.965Z" fill="#7C7C7C"/>
<path d="M217.433 445.947H175.693C187.774 460.765 201.727 475.098 217.433 488.824V445.947Z" fill="#7C7C7C"/>
<path d="M197.688 287.341C197.688 287.341 197.359 377.413 249.654 396.956C249.654 396.956 156.469 414.632 197.688 287.341ZM150.591 338.289C150.801 339.384 151.03 340.478 151.279 341.571C151.775 343.757 152.347 345.939 152.992 348.114C153.637 350.289 154.354 352.459 155.14 354.62C157.105 360.022 159.501 365.373 162.272 370.645C163.935 373.807 165.733 376.941 167.654 380.04C168.935 382.106 170.27 384.156 171.657 386.189C172.35 387.205 173.057 388.217 173.775 389.224C175.212 391.239 176.699 393.235 178.232 395.211C181.491 399.414 184.964 403.521 188.605 407.522C198.699 415.024 209.544 421.731 220.802 427.39C246.771 440.615 275.117 448.556 301.803 449.303C316.927 449.727 331.52 447.847 344.84 443.288C348.58 442.103 352.265 440.733 355.895 439.213C313.213 445.961 281.528 425.39 281.528 425.39C362.763 446.19 407.958 381.857 412.885 374.393C413.152 373.989 413.308 373.742 413.338 373.694C415.894 368.88 418.257 363.965 420.409 358.986C434.404 326.608 439.163 291.467 425.773 262.887C425.363 263.498 424.956 264.084 424.549 264.668C408.509 287.682 394.91 290.024 383.407 285.369C379.753 283.891 376.461 281.657 373.505 279.049C355.729 263.366 348.715 235.382 357.51 216.305C361.394 210.231 366.062 203.255 370.302 195.824C381.276 176.589 389.37 154.301 373.498 136.683C373.14 138.315 372.752 139.892 372.349 141.445C362.867 178.036 341.099 192.139 312.851 165.193C288.15 141.694 291.099 89.2243 309.746 66.2932C308.779 66.6866 307.83 67.1149 306.887 67.5561C306.744 67.623 306.595 67.6798 306.453 67.7479C303.208 69.297 300.107 71.1248 297.146 73.2014C295.558 74.3143 294.011 75.4977 292.504 76.752C292.317 76.9081 292.129 77.0641 291.943 77.2222C290.881 78.1249 289.837 79.0606 288.815 80.0313C288.203 80.6122 287.597 81.2028 286.999 81.8075C258.082 111.056 246.011 167.423 247.821 218.247C247.82 218.247 247.82 218.246 247.819 218.245C247.311 217.581 246.8 216.923 246.286 216.271C235.437 202.478 223.358 191.729 209.173 196.389C207.739 221.017 205.921 237.815 177.875 270.177C162.562 287.846 150.609 298.759 149.09 318.45C148.647 324.19 149.083 330.669 150.591 338.289Z" fill="#7C7C7C"/>
<path d="M197.69 287.341C197.69 287.341 197.36 377.413 249.655 396.956C249.655 396.956 156.471 414.632 197.69 287.341ZM175.221 325.704C175.195 325.584 175.166 325.464 175.156 325.341C175.114 324.817 175.236 324.344 175.462 323.936C175.207 324.19 175.022 324.467 174.991 324.78C174.955 325.146 175.053 325.448 175.221 325.704ZM279.212 201.175C279.474 210.143 283.724 218.152 290.115 222.947C290.52 223.254 290.935 223.635 291.276 224.029C291.652 224.463 291.964 224.934 292.224 225.427C294.569 226.671 297.103 227.619 299.951 227.601C305.015 227.569 310.059 224.313 312.708 220.204C315.357 216.095 315.883 211.316 315.178 206.967C314.473 202.617 312.63 198.601 310.8 194.63C308.445 199.372 306.09 204.115 303.734 208.858C303.353 209.626 302.883 210.476 302.018 210.821C301.042 211.211 300.017 210.783 299.234 210.285C294.345 207.176 292.566 201.491 291.568 196.044C290.208 188.618 289.816 180.954 290.394 173.24C290.406 173.082 290.431 172.901 290.461 172.71C290.302 172.985 290.117 173.256 289.895 173.517C289.879 173.536 289.864 173.554 289.847 173.573C282.66 181.996 278.906 192.214 279.212 201.175ZM372.253 342.628C368.624 347.045 364.227 351.238 358.588 351.318C357.684 351.331 356.616 351.144 356.011 350.235C355.474 349.429 355.524 348.387 355.604 347.469C356.1 341.8 356.597 336.131 357.094 330.462C353.536 333.06 349.946 335.69 347.124 339.27C344.301 342.849 342.275 347.517 342.348 352.773C342.421 358.028 344.911 363.858 349.079 366.75C350.956 368.053 352.988 368.669 355.047 368.964C355.507 368.799 355.991 368.678 356.517 368.66C356.559 368.659 356.6 368.658 356.641 368.657C362.491 368.481 368.122 367.308 373.003 365.029C377.868 362.725 381.912 359.285 384.649 354.88C387.488 350.543 388.709 344.999 388.995 339.041C389.028 338.292 389.06 337.545 389.092 336.796C389.159 336.066 389.158 335.305 389.051 334.486C388.924 332.9 388.795 331.315 388.668 329.729C388.653 328.189 388.158 326.469 387.902 324.844C387.602 323.204 387.303 321.564 387.006 319.925C386.937 319.55 386.869 319.175 386.801 318.8C386.779 318.682 386.77 318.567 386.752 318.449C385.928 319.463 385.43 321.454 384.966 322.435C381.471 329.817 377.201 336.605 372.253 342.628ZM357.512 216.304C348.717 235.382 355.73 263.366 373.507 279.049C376.462 281.657 379.754 283.891 383.408 285.369C394.912 290.024 408.511 287.681 424.55 264.668C424.511 264.587 424.476 264.504 424.436 264.423C408.829 282.96 391.893 279.826 379.001 269.077C361.391 254.395 355.977 229.619 364.918 208.506C366.684 204.334 368.54 200.097 370.304 195.824C366.064 203.255 361.395 210.231 357.512 216.304ZM312.852 165.192C341.1 192.139 362.869 178.036 372.351 141.445C358.345 161.888 333.587 174.044 318.85 153.614C304.351 133.513 303.254 91.3141 309.748 66.2925C291.101 89.2236 288.152 141.694 312.852 165.192ZM268.701 107.814C252.998 138.436 246.456 179.912 247.821 218.245L247.822 218.247C246.457 179.913 252.998 138.437 268.701 107.814ZM278.417 91.9498C276.722 94.26 275.109 96.6876 273.561 99.1987C275.11 96.6876 276.722 94.26 278.417 91.9498ZM167.656 380.04C165.734 376.941 163.937 373.807 162.274 370.644C163.936 373.807 165.734 376.941 167.656 380.04ZM177.877 270.176C205.922 237.815 207.741 221.017 209.175 196.389C223.36 191.729 235.438 202.477 246.288 216.271C234.649 201.219 219.593 180.826 200.72 176.111C201.559 212.403 198.007 231.78 176.924 253.398C162.147 272.469 149.711 291.267 149.092 318.449C150.61 298.758 162.564 287.846 177.877 270.176Z" fill="white"/>
<path d="M160.498 238.667C186.779 207.721 191.049 182.338 187.931 141.332C211.565 141.971 226.401 171.768 239.608 189.108C234.697 122.371 260.853 36.3649 332.443 30.0425C320.685 55.0839 312.64 98.1215 326.816 123.182C342.185 150.223 368.549 133.241 378.491 108.664C411.654 135.464 387.642 170.017 381.394 206.007C375.459 239.817 406.778 279.27 428.166 231.927C456.693 267.259 458.932 311.291 441.404 352.378C438.387 359.469 434.784 366.428 430.684 373.168C414.563 399.665 390.574 422.668 362.618 436.176C360.399 437.248 358.158 438.264 355.892 439.213C352.262 440.734 348.576 442.103 344.837 443.289C331.516 447.848 316.924 449.727 301.799 449.303C275.113 448.557 246.767 440.615 220.798 427.391C209.541 421.732 198.696 415.024 188.602 407.522H188.601C162.172 387.879 140.915 362.763 131.072 336.571C115.649 295.164 136.274 267.303 160.498 238.667ZM173.256 429.404C227.488 465.881 298.27 486.866 346.997 469.273C411.167 450.406 469.63 382.59 475.494 312.424C480.537 254.208 448.82 226.766 414.705 191.092C414.083 203.111 416.776 215.385 413.034 226.931C401.44 261.998 392.27 218.883 395.808 203.615C403.103 172.164 421.554 145.264 407.516 114.056C398.861 94.6338 382.374 82.43 367.63 69.5958C364.536 80.9799 361.966 109.498 353.636 116.152C325.776 137.649 337.609 30.0795 387.208 0.563546C353.372 -0.229545 320.284 -2.99709 288.784 18.1881C247.092 46.2845 227.343 99.4054 226.201 148.993C213.235 127.978 192.716 123.115 169.625 125.607C170.424 159.761 181.562 187.962 156.064 216.328C133.312 241.295 108.697 256.3 98.7962 288.044C81.2711 336.901 118.653 393.166 173.256 429.404Z" fill="#333333"/>
<path d="M131.072 336.57C140.915 362.762 162.171 387.878 188.601 407.521C184.96 403.52 181.487 399.413 178.228 395.211C176.695 393.235 175.209 391.239 173.771 389.224C173.053 388.217 172.347 387.205 171.653 386.188C170.267 384.156 168.931 382.105 167.65 380.04C165.729 376.941 163.931 373.807 162.269 370.644C159.497 365.373 157.102 360.021 155.137 354.619C154.35 352.458 153.633 350.289 152.989 348.113C152.344 345.938 151.771 343.756 151.275 341.57C151.027 340.477 150.798 339.383 150.588 338.288C149.08 330.669 148.644 324.189 149.087 318.449C149.705 291.267 162.141 272.468 176.919 253.397C198.002 231.78 201.554 212.403 200.715 176.111C219.587 180.826 234.643 201.218 246.283 216.271C246.796 216.923 247.308 217.58 247.815 218.245C246.007 167.422 258.079 111.055 286.996 81.8065C287.593 81.2023 288.2 80.6113 288.811 80.0304C289.834 79.0599 290.877 78.1242 291.94 77.2215C292.126 77.0629 292.313 76.9071 292.501 76.7511C294.007 75.4967 295.555 74.3134 297.142 73.2005C301.091 70.4318 305.286 68.1051 309.742 66.2923C303.249 91.3137 304.345 133.513 318.845 153.614C333.582 174.044 358.339 161.888 372.346 141.445C372.748 139.892 373.136 138.314 373.494 136.682C389.367 154.301 381.273 176.589 370.299 195.823C368.534 200.097 366.679 204.334 364.912 208.506C355.972 229.619 361.386 254.394 378.996 269.077C391.888 279.826 408.824 282.96 424.431 264.423C424.471 264.504 424.505 264.587 424.545 264.668C424.952 264.084 425.36 263.497 425.77 262.886C439.16 291.466 434.4 326.608 420.406 358.985C418.254 363.964 415.89 368.879 413.334 373.693C413.304 373.741 413.148 373.988 412.882 374.392C407.954 381.857 362.759 446.189 281.524 425.39C281.524 425.39 313.21 445.96 355.892 439.213C358.158 438.263 360.399 437.247 362.618 436.175C390.574 422.668 414.563 399.664 430.684 373.167C434.784 366.428 438.387 359.468 441.404 352.377C458.932 311.291 456.693 267.258 428.166 231.926C406.778 279.27 375.459 239.816 381.394 206.006C387.642 170.016 411.654 135.463 378.491 108.664C368.549 133.24 342.185 150.222 326.816 123.181C312.64 98.1204 320.685 55.0828 332.443 30.0415C260.853 36.3638 234.696 122.37 239.608 189.107C226.401 171.767 211.565 141.97 187.931 141.331C191.049 182.337 186.779 207.72 160.498 238.666C136.274 267.302 115.649 295.164 131.072 336.57Z" fill="#B4BABA"/>
<path d="M15.9083 402.565C29.0379 381.115 34.0366 361.66 38.0252 343.571C40.3329 332.657 42.4367 321.2 44.6635 309.073C46.7462 297.731 48.8996 286.003 51.5693 272.674L53.266 264.203L61.5689 262.464C81.3933 258.312 103.213 255.118 128.275 252.7L144.035 251.179L142.245 267.222C141.955 269.823 141.671 272.377 141.392 274.887C138.336 302.373 135.922 324.083 132.435 343.954C128.606 365.773 123.823 383.266 116.925 400.676L114.141 407.705L106.778 408.744C98.4179 409.924 90.0411 411.196 81.8806 412.523L61.2549 415.879L61.1507 416.073L55.136 417.199C46.5715 418.803 37.9165 420.528 29.4118 422.329L0 428.554L15.9083 402.565Z" fill="#333333"/>
<path d="M106.926 389.213C111.733 376.364 115.362 362.865 118.473 345.947L110.982 346.607L113.506 330.099C114.497 323.62 115.463 316.571 116.46 308.549L117.766 298.045L128.108 297.145C129.852 296.993 131.628 296.841 133.411 296.691C139.731 291.275 145.965 285.719 151.985 280.135L176.477 257.422L173.413 291.041C173.327 291.977 173.242 292.9 173.158 293.811L181.305 293.283L179.795 308.641C178.999 316.748 178.206 323.977 177.374 330.741L176.055 341.456L167.611 342.034C166.699 348.191 165.736 353.944 164.705 359.401L169.115 359.025L173.074 366.707C175.692 371.786 178.325 376.776 181.125 381.964L190.619 399.549L171.014 401.33C153.999 402.876 137.019 404.743 120.544 406.879L99.2832 409.636L106.926 389.213Z" fill="#333333"/>
<path d="M162.816 384.525C170.719 353.367 173.926 319.809 177.742 260.816L178.502 249.083L190.02 248.591C196.881 248.298 204.149 248.032 211.623 247.802L225.555 247.373L224.837 261.571C224.269 272.786 223.732 282.57 223.194 291.451C232.138 291.138 241.179 290.881 250.208 290.68L263.854 290.377L263.32 304.289C261.974 339.36 260.366 363.488 257.943 384.966L256.682 396.144L245.659 396.56C237.547 396.865 229.328 397.245 221.228 397.687L210.308 398.283L210.306 398.292L200.607 398.965C192.495 399.527 184.33 400.164 176.339 400.859L158.275 402.427L162.816 384.525Z" fill="#333333"/>
<path d="M237.767 381.927C241.006 350.018 242.371 314.321 243.758 259.61L244.078 247.009L256.435 246.85C263.441 246.76 270.68 246.691 277.952 246.646L291.045 246.564L290.873 259.918C290.182 313.522 289.454 350.902 287.778 383.342L287.147 395.542L275.171 395.75C267.083 395.89 258.94 396.098 250.968 396.369L236.25 396.868L237.767 381.927Z" fill="#333333"/>
<path d="M349.67 396.377C333.277 395.819 316.637 395.535 300.213 395.535C293.668 395.535 287.026 395.58 280.473 395.669L266.906 395.853L267.471 382.025C268.328 361.061 268.899 337.461 269.379 303.113L269.558 290.299L282.121 290.201C288.143 290.153 294.239 290.129 300.238 290.129C315.337 290.129 330.58 290.281 345.545 290.581L357.698 290.825L358.128 303.215C358.856 324.197 359.653 340.731 360.634 355.25L361.607 369.634L355.28 369.461C356.708 371.146 358.168 372.838 359.668 374.548L379.726 397.401L349.67 396.377Z" fill="#333333"/>
<path d="M424.299 400.877C401.492 398.894 378.169 397.444 354.978 396.567L343.961 396.15L342.696 384.98C340.263 363.503 338.649 339.373 337.298 304.295L336.762 290.38L350.412 290.684C371.999 291.166 393.369 291.967 413.926 293.066L425.091 293.662L426.05 305.024C427.884 326.751 429.772 342.909 432.173 357.414L434.881 373.775L429.644 373.417C431.255 375.161 432.902 376.915 434.593 378.688L458.612 403.86L424.299 400.877Z" fill="#333333"/>
<path d="M488.485 408.027C472.025 405.775 455.021 403.792 437.945 402.133L429.264 401.289L426.83 392.748C422.491 377.518 419.236 361.237 416.523 341.005L408.673 340.529L407.465 329.571C406.717 322.797 406.013 315.603 405.31 307.579L403.988 292.503L418.806 293.333C420.238 293.414 421.651 293.494 423.033 293.575C427.862 289.361 432.598 285.041 437.156 280.689L456.193 262.514L458.715 288.986C458.948 291.437 459.177 293.792 459.404 296.07L467.442 296.695L468.662 307.426C469.566 315.385 470.453 322.423 471.374 328.944L473.662 345.15L465.527 344.5C466.607 350.945 467.757 356.896 469.007 362.511C470.468 362.662 471.916 362.814 473.346 362.967L478.182 363.483L481.471 367.135C487.108 373.397 492.888 379.452 499.14 385.647L527.054 413.303L488.485 408.027Z" fill="#333333"/>
<path d="M571.015 422.329C545.667 416.965 520.43 412.532 493.862 408.775L486.584 407.746L483.765 400.824C480.832 393.621 478.272 386.23 475.992 378.368L475.667 378.444L473.495 369.248L470.898 359.544L471.249 359.474C465.852 334.566 462.699 307.323 458.363 267.195L456.635 251.199L472.341 252.718C497.333 255.136 519.09 258.324 538.857 262.465L547.167 264.205L548.858 272.685C551.703 286.947 554.064 299.746 556.054 310.623L557.862 320.51L557.998 321.205C558.376 323.134 558.746 325.045 559.113 326.94C564.266 353.534 568.717 376.502 584.547 402.613L600.25 428.515L571.015 422.329Z" fill="#333333"/>
<path d="M99.2856 328.828C101.102 318.068 102.758 306.563 104.49 293.828C96.7051 294.683 88.9234 295.62 81.1488 296.653C79.1369 309.219 77.2996 320.6 75.3077 331.352C83.3009 330.465 91.2933 329.625 99.2856 328.828ZM129.483 265.143C122.955 322.505 119.578 356.589 105.017 392.621C96.6683 393.776 88.2883 395.02 79.8566 396.365C87.3634 380.544 91.8769 365.303 95.4651 348.873C87.3434 349.715 79.2265 350.6 71.1142 351.527C67.1379 368.202 62.0647 384.091 52.8163 401C44.2437 402.573 35.5882 404.262 26.8008 406.085C40.4062 384.294 45.948 364.751 50.5656 344.212C55.0121 323.605 58.5344 302.003 64.1508 274.511C85.6106 270.104 107.502 267.223 129.483 265.143Z" fill="#EEE8EE"/>
<path d="M169.875 385.282C152.951 386.789 135.988 388.604 118.924 390.774C126.284 371.49 130.433 352.357 133.882 329.57C131.32 329.782 128.757 329.998 126.195 330.219C127.256 323.415 128.242 316.289 129.2 308.727C131.722 308.512 134.244 308.303 136.766 308.098C137.348 308.053 137.93 308.004 138.512 307.958C145.98 301.764 153.348 295.374 160.625 288.758C160.051 294.932 159.471 300.819 158.874 306.456C161.589 306.271 164.303 306.094 167.016 305.922C166.262 313.448 165.477 320.532 164.631 327.269C161.871 327.455 159.111 327.645 156.353 327.842C154.234 343.812 151.774 357.868 148.393 371.275C152.831 370.867 157.268 370.477 161.706 370.105C164.445 375.317 167.162 380.356 169.875 385.282Z" fill="#EEE8EE"/>
<path d="M250.486 302.432C249.226 334.627 247.714 358.574 245.183 380.561C236.972 380.865 228.758 381.236 220.54 381.676C223.4 364.513 225.331 346.302 226.907 324.062C220.535 324.29 214.163 324.55 207.791 324.84C205.814 347.181 203.395 365.514 199.735 382.94C191.58 383.495 183.418 384.118 175.248 384.813C183.634 352.4 186.815 317.86 190.556 261.16C197.707 260.86 204.859 260.608 212.01 260.392C211.18 276.46 210.35 290.753 209.445 303.716C223.13 303.154 236.81 302.729 250.486 302.432Z" fill="#EEE8EE"/>
<path d="M256.599 259.464C263.745 259.373 270.89 259.308 278.034 259.264C277.304 314.694 276.561 349.279 274.954 379.761C266.819 379.899 258.682 380.102 250.543 380.373C253.722 349.673 255.161 315.08 256.599 259.464Z" fill="#EEE8EE"/>
<path d="M304.547 322.753C304.566 327.209 304.586 331.499 304.607 335.647C311.066 335.663 317.525 335.708 323.984 335.789C323.87 331.636 323.763 327.342 323.66 322.882C317.289 322.81 310.918 322.767 304.547 322.753ZM304.708 353.143C304.732 356.971 304.759 360.688 304.787 364.317C315.463 364.347 326.139 364.479 336.815 364.715C341.094 370.06 345.508 375.252 350.099 380.381C326.824 379.603 303.567 379.372 280.303 379.68C281.21 357.916 281.763 334.041 282.22 301.964C303.244 301.802 324.264 301.922 345.293 302.336C345.993 322.114 346.787 338.776 347.821 353.78C333.452 353.392 319.08 353.179 304.708 353.143Z" fill="#EEE8EE"/>
<path d="M373.713 324.069C374.031 328.563 374.365 332.893 374.718 337.083C381.176 337.332 387.633 337.614 394.09 337.928C393.646 333.714 393.228 329.364 392.829 324.849C386.457 324.559 380.084 324.298 373.713 324.069ZM376.422 354.781C376.848 358.661 377.3 362.435 377.785 366.128C388.46 366.628 399.135 367.231 409.811 367.938C414.762 373.625 419.924 379.217 425.39 384.832C402.026 382.841 378.732 381.432 355.454 380.569C352.914 358.58 351.396 334.631 350.131 302.436C371.161 302.896 392.2 303.653 413.254 304.756C414.983 324.825 416.905 341.724 419.51 357.155C405.152 356.192 390.788 355.399 376.422 354.781Z" fill="#EEE8EE"/>
<path d="M490.188 391.909C473.085 389.615 456.099 387.688 439.159 386.074C433.893 367.953 430.607 349.313 427.91 326.755C425.348 326.594 422.785 326.437 420.223 326.284C419.469 319.577 418.768 312.518 418.098 305.016C420.617 305.155 423.136 305.298 425.655 305.447C426.237 305.481 426.818 305.516 427.4 305.551C433.643 300.336 439.825 294.885 445.928 289.173C446.529 295.354 447.134 301.244 447.756 306.888C450.471 307.082 453.185 307.282 455.9 307.489C456.776 315.042 457.682 322.156 458.658 328.935C455.899 328.719 453.14 328.507 450.38 328.302C452.583 344.298 455.142 358.401 458.69 371.901C463.129 372.327 467.567 372.771 472.008 373.235C477.667 379.398 483.657 385.564 490.188 391.909Z" fill="#EEE8EE"/>
<path d="M522.821 317.215C521.72 310.688 520.622 303.878 519.469 296.679C511.631 295.635 503.785 294.69 495.936 293.828C497.992 308.923 499.933 322.292 502.172 334.739C516.718 330.52 531.152 326.184 545.406 322.034C551.285 351.485 555.407 376.623 573.625 406.085C546.832 400.527 521.131 396.187 495.627 392.651C492.095 384.146 489.29 375.712 486.927 367.052C494.112 365.643 501.241 364.211 508.323 362.753C509.716 367.906 511.267 372.986 513.046 378.057C521.598 379.178 530.16 380.373 538.74 381.651C534.552 371.014 531.578 360.531 529.072 349.667C514.59 353.318 499.994 356.86 485.177 360.27C478.887 334.158 475.574 305.477 471.131 265.161C493.049 267.24 514.878 270.117 536.275 274.511C539.036 288.083 541.324 300.209 543.431 311.501C536.622 313.341 529.742 315.264 522.821 317.215Z" fill="#EEE8EE"/>
<path d="M227.982 426.928H233.362V400.204H227.114V405.584H223.123V396.213H238.394V426.928H243.774V430.919H228.156V426.928H227.982Z" fill="white"/>
<path d="M260.098 426.928H276.236V415.128H261.486V411.137H276.236V400.378H260.098V396.213H281.269V430.919H260.098V426.928Z" fill="white"/>
<path d="M296.49 426.928H312.629V415.128H297.878V411.137H312.629V400.378H296.49V396.213H317.488V430.919H296.49V426.928Z" fill="white"/>
<path d="M349.074 400.204H335.712V408.707H331.721V396.213H353.586V430.919H349.074V400.204Z" fill="white"/>
<path fill-rule="evenodd" clip-rule="evenodd" d="M384.06 409.66L384.059 417.47H391.87L391.868 409.66H384.06Z" fill="white"/>
<path fill-rule="evenodd" clip-rule="evenodd" d="M187.486 409.66L187.484 417.47H195.296L195.294 409.66H187.486Z" fill="white"/>
</g>
<defs>
<clipPath id="clip0_613_169">
<rect width="601" height="599" fill="white"/>
</clipPath>
</defs>
</svg>
