<svg width="512" height="453" viewBox="0 0 512 453" fill="none" xmlns="http://www.w3.org/2000/svg">
<path d="M485.182 174.922C485.494 174.27 485.732 173.586 485.896 172.879C491.412 149.082 480.197 133.102 470.537 125.531C468.346 107.684 451.521 96.2663 437.752 90.7543C436.35 73.9413 429.967 60.2893 418.721 50.0984C400.315 33.4224 373.944 31.1724 361.05 31.1724H360.655C348.093 9.69944 319.347 8.70744 302.585 11.8204C292.753 8.46044 282.839 5.79045 273.085 3.86345C267.651 2.79345 262.366 6.32445 261.292 11.7664C260.218 17.2034 263.757 22.4844 269.198 23.5594C278.882 25.4734 288.765 28.2034 298.558 31.6764C300.372 32.323 302.335 32.4314 304.21 31.9884C304.546 31.9104 337.675 24.3784 344.94 44.8284C346.483 49.1604 350.788 51.8874 355.366 51.4574C355.683 51.4264 387.3 48.6484 405.3 65.0313C411.632 70.7973 415.542 78.2343 417.139 87.5983C403.597 88.2463 382.472 93.0043 371.476 114.778C370.703 116.308 370.335 118.01 370.406 119.722C370.478 121.434 370.986 123.1 371.883 124.56C372.78 126.02 374.036 127.226 375.531 128.064C377.026 128.901 378.711 129.342 380.425 129.344C384.093 129.344 387.628 127.328 389.394 123.832C398.651 105.512 421.655 107.352 425.831 107.852C429.542 109.07 451.553 116.918 450.666 130.372C450.539 132.322 450.983 134.267 451.944 135.969C452.906 137.67 454.344 139.053 456.08 139.949C456.115 139.965 459.678 141.969 462.768 146.176C466.826 151.699 468.158 158.484 466.744 166.367L466.068 167.266C450.486 168.976 427.053 178.781 423.854 207.766C423.249 213.277 427.221 218.238 432.733 218.848C433.107 218.887 433.478 218.906 433.846 218.906C438.896 218.906 443.244 215.106 443.811 209.969C445.838 191.602 461.611 187.949 468.412 187.23C512.4 219.496 481.35 294.742 479.295 299.566C468.405 320.386 454.736 331.039 437.603 332.012C430.26 325.875 411.034 312.23 377.433 304.18C372.038 302.887 366.62 306.21 365.327 311.602C364.038 316.996 367.358 322.414 372.753 323.703C401.463 330.582 417.854 341.883 423.901 346.743C423.829 349.482 423.457 352.205 422.792 354.863C415.652 383.23 377.257 398.109 337.202 388.023C330.573 386.352 324.152 384.051 318.116 381.18C316.653 380.484 315.044 380.153 313.425 380.214C311.806 380.275 310.226 380.727 308.82 381.531C307.414 382.335 306.223 383.467 305.35 384.831C304.476 386.195 303.945 387.75 303.803 389.364C302.655 402.359 303.213 414.879 305.456 426.714L279.096 431.098C277.972 427.105 276.843 422.438 275.62 417.363C269.73 392.969 261.222 357.777 236.206 328.903C257.03 323.832 277.066 320.484 295.948 318.933C301.476 318.48 305.588 313.633 305.132 308.109C304.679 302.582 299.827 298.477 294.308 298.926C269.351 300.973 242.593 305.965 214.765 313.758C189.253 317.211 171.385 315.828 169.385 315.652C125.87 309.113 113.718 282.82 116.545 262.262C116.768 260.64 116.591 258.989 116.029 257.451C115.468 255.914 114.539 254.537 113.323 253.441C112.108 252.344 110.643 251.561 109.056 251.161C107.469 250.76 105.808 250.753 104.218 251.141L96.9402 252.921C84.2492 252.293 52.5263 247.379 38.2493 230.754C32.0463 223.527 29.6713 214.801 30.9953 204.074C31.2441 202.053 30.8722 200.004 29.929 198.199C28.9857 196.394 27.5158 194.919 25.7143 193.969C25.6713 193.945 21.3973 191.371 20.3473 186.836C19.0973 181.434 22.7223 174.965 25.9833 170.492C26.9547 169.159 27.5826 167.607 27.8116 165.973C28.0406 164.339 27.8636 162.674 27.2963 161.125C27.2183 160.915 19.8163 139.559 28.2693 121.832C32.9723 111.969 41.9873 104.695 55.0693 100.219C58.8592 98.9223 61.5072 95.5663 61.8192 91.5743C61.8312 91.4453 63.1092 78.7143 72.3822 71.8013C78.7882 67.0273 88.0302 65.8053 99.8472 68.1683C102.527 68.6993 105.304 68.1253 107.546 66.5663C109.788 65.0073 111.3 62.6063 111.729 59.9063C111.765 59.6883 116.261 38.7964 155.429 38.0554C161.37 46.1684 174.479 67.4853 164.753 86.5823C162.237 91.5233 164.206 97.5703 169.143 100.086C171.516 101.294 174.272 101.51 176.804 100.687C179.336 99.8635 181.438 98.0685 182.647 95.6963C186.003 89.14 187.92 81.943 188.272 74.5863C193.69 72.2813 202.128 69.8053 208.862 71.8093C213.242 73.1053 216.608 76.2853 219.159 81.5193C219.983 83.2133 221.268 84.6412 222.866 85.6395C224.463 86.6377 226.31 87.1662 228.194 87.1643C229.716 87.1628 231.217 86.8139 232.584 86.1443C237.569 83.7193 239.64 77.7073 237.21 72.7233C232.198 62.4413 224.374 55.4693 214.577 52.5594C204.144 49.4614 193.527 51.4384 185.671 54.0864C183.05 45.1254 178.929 37.3404 175.304 31.6094C180.03 29.5514 186.414 27.1524 194.272 25.0864C199.636 23.6804 202.842 18.1884 201.432 12.8284C200.022 7.46144 194.53 4.26245 189.171 5.66845C173.304 9.83644 162.433 15.2584 157.612 17.9494C116.952 17.9574 101.233 35.7194 95.3152 47.2194C81.3042 45.8954 69.5032 48.7974 60.1442 55.8794C49.2343 64.1333 44.7643 76.0123 42.9683 83.3483C27.5423 89.8083 16.5153 99.8283 10.1443 113.188C0.897367 132.582 4.46036 153.449 6.90135 162.898C0.761367 172.808 -1.29763 182.368 0.788366 191.368C2.55436 199 6.91735 204.308 10.5933 207.598C10.1283 221.504 14.2923 233.672 23.0153 243.832C44.6403 269.008 87.7412 272.527 96.2532 272.98C98.4442 300.977 119.757 328.602 166.71 335.55C166.858 335.574 167.01 335.594 167.163 335.61C167.581 335.652 172.78 336.16 181.565 336.16C189.542 336.16 200.487 335.738 213.491 334.16C241.187 360.34 249.776 395.867 256.101 422.074C258.405 431.614 260.394 439.855 262.987 446.207C263.848 448.315 265.4 450.067 267.388 451.177C269.376 452.286 271.683 452.687 273.929 452.313L319.354 444.753C322.183 444.281 324.674 442.625 326.202 440.199C327.73 437.773 328.147 434.809 327.347 432.055C324.87 423.512 323.527 414.415 323.327 404.875C326.272 405.859 329.269 406.73 332.296 407.492C356.378 413.555 380.897 412.238 401.343 403.782C422.818 394.898 437.35 379.266 442.26 359.766C442.934 357.068 443.412 354.325 443.69 351.559C460.826 349.176 481.455 338.977 497.271 308.512C497.365 308.332 497.451 308.152 497.533 307.969C497.967 306.996 508.197 283.769 511.189 255.445C514.885 220.441 505.916 192.844 485.182 174.922Z" fill="#24BF6D"/>
<path d="M233.519 145.423C233.624 146.005 236.233 159.841 245.831 173.419C248.336 176.971 251.177 180.273 254.315 183.282C252.511 193.595 236.737 199.239 236.366 199.368C234.116 200.136 232.212 201.678 230.992 203.719C229.772 205.76 229.315 208.167 229.704 210.513C230.093 212.859 231.301 214.99 233.114 216.529C234.926 218.067 237.226 218.913 239.604 218.915C240.671 218.915 241.753 218.743 242.815 218.384C252.097 215.254 265.581 207.462 271.545 194.938C279.351 198.462 288.761 200.743 300.062 200.743C300.78 200.743 301.511 200.731 302.245 200.716C307.788 200.571 312.167 195.966 312.022 190.423C311.886 184.966 307.421 180.638 301.992 180.638C301.905 180.638 301.819 180.642 301.733 180.642C261.453 181.653 253.601 143.532 253.261 141.782C252.249 136.349 247.031 132.747 241.589 133.747C236.136 134.739 232.522 139.97 233.519 145.423ZM355.913 233.571C373.343 203.114 366.46 179.564 357.62 165.169C348.28 149.969 334.823 141.962 334.257 141.629C329.487 138.833 323.382 140.427 320.562 145.177C317.742 149.931 319.315 156.079 324.054 158.923C324.155 158.981 334.229 165.106 340.854 176.247C349.218 190.31 348.417 206.239 338.484 223.599C335.729 228.411 337.401 234.544 342.214 237.298C343.726 238.168 345.441 238.626 347.186 238.626C350.675 238.626 354.058 236.813 355.913 233.571ZM462.315 257.036C466.827 253.813 467.874 247.544 464.651 243.032C461.428 238.52 455.159 237.474 450.647 240.696C440.858 247.688 431.952 250.317 424.175 248.505C412.456 245.782 405.8 233.751 405.644 233.47C403.065 228.59 397.03 226.708 392.128 229.263C387.21 231.829 385.304 237.892 387.87 242.806C388.265 243.56 396.964 259.884 414.335 266.446C411.225 278.728 409.245 300.399 427.394 315.576C429.196 317.088 431.474 317.917 433.827 317.916C436.698 317.916 439.546 316.688 441.534 314.317C445.089 310.063 444.526 303.731 440.272 300.173C429.194 290.907 432.308 275.704 434.492 268.821C443.558 267.711 452.87 263.782 462.315 257.036ZM166.761 192.564C166.065 187.064 161.042 183.177 155.538 183.868C150.038 184.564 146.144 189.591 146.843 195.091C148.585 208.829 137.808 218.829 131.425 223.466C115.358 215.513 97.3661 218.544 96.4721 218.7C91.0301 219.661 87.4091 224.84 88.3471 230.286C89.2841 235.731 94.4721 239.392 99.9211 238.481C100.093 238.451 117.038 235.735 127.179 244.524C132.968 249.544 135.769 257.939 135.499 269.474C135.37 275.017 139.761 279.614 145.304 279.744C145.382 279.747 145.46 279.747 145.542 279.747C150.976 279.747 155.444 275.407 155.573 269.942C155.89 256.442 153.015 245.333 147.019 236.771C156.859 228.603 169.449 213.759 166.761 192.563V192.564ZM72.3541 139.935C71.2641 142.544 69.6081 144.88 67.5191 147.005C62.0731 152.555 55.2371 154.618 54.9791 154.696C49.6671 156.169 46.5301 161.653 47.9681 166.986C49.1751 171.462 53.2291 174.411 57.6511 174.411C58.5191 174.411 59.3971 174.298 60.2761 174.06C60.9091 173.888 73.5191 170.368 83.2561 159.54C89.9601 164.517 97.8351 167.114 106.464 167.114C108.866 167.114 111.324 166.915 113.831 166.509C125.206 164.677 133.726 159.313 134.659 158.708C139.312 155.692 140.639 149.478 137.624 144.825C134.608 140.173 128.394 138.845 123.737 141.86C123.683 141.896 117.839 145.524 110.64 146.688C103.405 147.856 97.6941 146.208 92.9871 141.536C95.2611 132.884 94.9871 123.243 92.1321 112.731C90.6821 107.38 85.1711 104.22 79.8151 105.673C74.4641 107.126 71.3041 112.638 72.7571 117.989C75.0621 126.489 74.9991 133.599 72.5421 139.497L72.3541 139.935ZM307.292 54.5355C290.335 44.4775 270.847 49.6725 270.026 49.8985C264.683 51.3715 261.542 56.8985 263.015 62.2425C264.483 67.5865 270.019 70.7225 275.358 69.2585C275.476 69.2235 287.507 66.1415 297.046 71.8015C302.722 75.1685 306.64 81.3125 308.698 90.0595C309.788 94.6845 313.909 97.8015 318.464 97.8015C319.226 97.8015 319.995 97.7115 320.769 97.5315C326.167 96.2615 329.515 90.8555 328.241 85.4615C324.886 71.1995 317.839 60.7935 307.292 54.5355ZM270.925 243.817C263.772 256.107 253.436 262.688 240.21 263.38C229.585 263.93 220.827 260.505 220.612 260.415C218.155 259.409 215.399 259.418 212.948 260.44C210.498 261.462 208.552 263.414 207.538 265.868C205.417 270.993 207.851 276.864 212.972 278.981C214.152 279.47 224.339 283.521 237.823 283.521C238.651 283.521 239.495 283.505 240.351 283.47C254.683 282.927 274.636 277.356 288.281 253.915C291.069 249.126 289.444 242.978 284.651 240.189C279.862 237.399 273.714 239.024 270.925 243.817ZM343.616 302.696C341.246 299.161 336.808 297.466 332.667 298.583C328.663 299.657 325.698 303.169 325.277 307.29C324.851 311.454 327.198 315.567 330.976 317.345C334.659 319.075 339.151 318.399 342.124 315.603C345.679 312.263 346.319 306.735 343.616 302.696ZM222.187 13.8555C223.78 17.7155 227.769 20.2465 231.937 20.0475C236.019 19.8475 239.644 17.1095 240.956 13.2425C242.288 9.33254 241.019 4.88754 237.827 2.26254C234.456 -0.511457 229.519 -0.761457 225.89 1.66854C221.964 4.29754 220.378 9.47754 222.187 13.8555Z" fill="#24BF6D"/>
</svg>
