<svg width="512" height="512" viewBox="0 0 512 512" fill="none" xmlns="http://www.w3.org/2000/svg">
<g clip-path="url(#clip0_701_149)">
<path d="M511.667 287.755C511.998 286.268 511.919 284.72 511.437 283.275C505.585 198.727 435.625 132.939 350.877 132.289C322.592 37.4756 222.8 -16.4581 127.986 11.8271C33.1715 40.1124 -20.7611 139.904 7.52304 234.718C14.8827 259.388 27.4729 282.182 44.436 301.548C61.3991 320.914 82.3367 336.396 105.823 346.941C89.0148 355.933 73.3998 366.995 59.3426 379.87L34.9976 402.184C24.5744 411.737 23.8683 427.93 33.4211 438.353C34.4888 439.518 35.6621 440.582 36.9261 441.53L64.3687 462.112C103.87 491.613 151.828 507.598 201.129 507.696H225.551C274.847 507.594 322.798 491.609 362.295 462.112L371.954 454.868C452.246 443.994 512.104 375.392 512 294.368C512 292.132 511.753 289.965 511.667 287.755ZM466.919 209.036C482.365 230.075 491.803 254.916 494.225 280.903L486.989 284.521L445.092 256.592L458.702 209.036H466.919ZM409.184 162.147C425.319 169.374 440.003 179.48 452.515 191.97H452.268C450.414 191.972 448.61 192.577 447.131 193.695C445.651 194.813 444.576 196.382 444.068 198.165L428.077 254.126L400.66 266.772L358.403 238.604V204.949L405.967 171.67C407.442 170.627 408.549 169.144 409.127 167.432C409.705 165.721 409.725 163.87 409.184 162.147ZM216.438 202.492C215.523 203.239 214.773 204.169 214.236 205.222C214.137 205.527 214.054 205.838 213.989 206.152L191.273 183.437L218.383 156.327C225.594 162.882 233.324 168.841 241.5 174.144H241.482C232.062 182.59 223.658 192.103 216.438 202.492ZM205.208 221.495C195.531 240.642 189.784 261.531 188.304 282.933C180.409 260.59 168.125 240.052 152.175 222.527L179.191 195.477L205.208 221.495ZM225.355 220.317L232.181 223.731L245.954 258.153L211.634 292.516L205.046 289.222C205.883 264.907 212.871 241.2 225.355 220.317ZM209.517 310.496C211.119 311.295 212.933 311.57 214.7 311.282C216.467 310.995 218.099 310.158 219.365 308.891L258.054 270.211L291.615 283.633L307.529 339.329C307.684 339.761 307.879 340.178 308.109 340.575C278.368 326.975 246.044 319.946 213.34 319.967C211.326 319.967 209.321 320.053 207.307 320.104L207.29 320.061C206.608 316.238 205.959 312.381 205.584 308.524L209.517 310.496ZM297.673 267.71L262.568 253.665L246.867 214.412C246.091 212.468 244.627 210.877 242.754 209.941L235.074 206.084C249.671 187.086 268.728 171.98 290.557 162.104C290.016 163.828 290.036 165.678 290.614 167.39C291.192 169.101 292.298 170.585 293.774 171.627L341.337 204.949V238.604L297.673 267.71ZM349.87 253.409L390.266 280.399C390.334 280.578 390.317 280.766 390.403 280.945C390.56 281.241 390.737 281.527 390.932 281.799L377.569 328.5H322.172L308.587 280.945L349.87 253.409ZM388.722 154.749V154.791L390.94 161.37L349.87 190.084L308.8 161.328L311.019 154.749C336.411 147.49 363.329 147.49 388.722 154.749ZM333.333 133.092C305.26 135.995 278.443 146.226 255.571 162.761C246.628 157.411 238.222 151.213 230.466 144.253L299.678 75.0662C314.824 91.847 326.288 111.613 333.333 133.092ZM287.51 63.0601L218.392 132.179C194.23 105.39 179.725 71.2877 177.185 35.3018L176.195 21.5293C217.229 20.7263 257.03 35.5756 287.51 63.0601ZM159.18 22.7752L160.162 36.5135C162.979 76.6031 179.234 114.571 206.3 144.279L179.208 171.371L70.9051 63.0601C95.4908 40.8788 126.314 26.8123 159.18 22.7752ZM58.8392 75.126L167.142 183.437L140.117 210.462C110.382 183.406 72.3894 167.171 32.2841 164.383L18.5372 163.401C22.5797 130.534 36.6522 99.7099 58.8392 75.126ZM17.2999 180.425L31.0724 181.406C67.0689 183.922 101.19 198.402 128.009 222.544L58.8136 291.748C31.3364 261.261 16.4936 221.459 17.2999 180.425ZM70.7856 303.934L140.117 234.636C162.106 259.136 176.076 289.775 180.155 322.442C161.949 325.109 144.134 329.98 127.104 336.948C106.292 329.865 87.1328 318.634 70.7856 303.934ZM380.701 426.819C380.344 427.207 379.953 427.562 379.532 427.878L352.046 448.469C315.508 475.752 271.152 490.537 225.551 490.631H201.129C155.529 490.537 111.172 475.752 74.634 448.469L47.1829 427.878C46.1799 427.126 45.355 426.162 44.7668 425.055C44.1786 423.948 43.8415 422.725 43.7796 421.473C43.7177 420.221 43.9324 418.97 44.4086 417.811C44.8847 416.651 45.6105 415.61 46.5344 414.763L70.8368 392.449C88.2093 376.616 108.111 363.804 129.715 354.545C131.011 354.303 132.232 353.763 133.282 352.966C208.839 321.759 295.633 337.156 355.844 392.449L380.18 414.763C381.848 416.293 382.84 418.422 382.937 420.683C383.035 422.944 382.23 425.151 380.701 426.819ZM367.338 379.87C352.549 366.328 336.041 354.794 318.238 345.567H380.47L399.243 364.34L383.866 395.059L367.338 379.87ZM397.716 431.248C399.414 427.595 400.179 423.578 399.942 419.557C399.705 415.536 398.474 411.637 396.359 408.208L414.876 371.166H464.061L467.858 378.761C450.473 403.094 425.965 421.433 397.716 431.248ZM478.354 361.635L477.014 358.819C476.302 357.394 475.205 356.196 473.848 355.362C472.491 354.529 470.927 354.091 469.334 354.1H413.135L393.586 334.55L408.63 281.892L434.442 269.989L481.665 301.467C482.914 302.3 484.361 302.787 485.859 302.882C487.357 302.976 488.854 302.674 490.198 302.005L494.661 299.769C493.913 321.35 488.341 342.489 478.354 361.635Z" fill="black"/>
<path d="M290.139 405.299H281.606V396.766C281.606 394.502 280.707 392.332 279.107 390.732C277.507 389.131 275.336 388.232 273.073 388.232C270.81 388.232 268.639 389.131 267.039 390.732C265.439 392.332 264.54 394.502 264.54 396.766V405.299H247.474V396.766C247.474 394.502 246.575 392.332 244.974 390.732C243.374 389.131 241.204 388.232 238.94 388.232C236.677 388.232 234.507 389.131 232.907 390.732C231.306 392.332 230.407 394.502 230.407 396.766V405.299H213.341V396.766C213.341 394.502 212.442 392.332 210.842 390.732C209.241 389.131 207.071 388.232 204.808 388.232C202.545 388.232 200.374 389.131 198.774 390.732C197.174 392.332 196.275 394.502 196.275 396.766V405.299H179.208V396.766C179.208 394.502 178.309 392.332 176.709 390.732C175.109 389.131 172.938 388.232 170.675 388.232C168.412 388.232 166.242 389.131 164.641 390.732C163.041 392.332 162.142 394.502 162.142 396.766V405.299H145.076V396.766C145.076 394.502 144.177 392.332 142.577 390.732C140.976 389.131 138.806 388.232 136.543 388.232C134.28 388.232 132.109 389.131 130.509 390.732C128.909 392.332 128.01 394.502 128.01 396.766V405.299H119.476C117.213 405.299 115.043 406.198 113.443 407.798C111.842 409.398 110.943 411.569 110.943 413.832C110.943 416.095 111.842 418.265 113.443 419.866C115.043 421.466 117.213 422.365 119.476 422.365H128.01V430.898C128.01 433.161 128.909 435.332 130.509 436.932C132.109 438.532 134.28 439.431 136.543 439.431C138.806 439.431 140.976 438.532 142.577 436.932C144.177 435.332 145.076 433.161 145.076 430.898V422.365H162.142V430.898C162.142 433.161 163.041 435.332 164.641 436.932C166.242 438.532 168.412 439.431 170.675 439.431C172.938 439.431 175.109 438.532 176.709 436.932C178.309 435.332 179.208 433.161 179.208 430.898V422.365H196.275V430.898C196.275 433.161 197.174 435.332 198.774 436.932C200.374 438.532 202.545 439.431 204.808 439.431C207.071 439.431 209.241 438.532 210.842 436.932C212.442 435.332 213.341 433.161 213.341 430.898V422.365H230.407V430.898C230.407 433.161 231.306 435.332 232.907 436.932C234.507 438.532 236.677 439.431 238.94 439.431C241.204 439.431 243.374 438.532 244.974 436.932C246.575 435.332 247.474 433.161 247.474 430.898V422.365H264.54V430.898C264.54 433.161 265.439 435.332 267.039 436.932C268.639 438.532 270.81 439.431 273.073 439.431C275.336 439.431 277.507 438.532 279.107 436.932C280.707 435.332 281.606 433.161 281.606 430.898V422.365H290.139C292.402 422.365 294.573 421.466 296.173 419.866C297.773 418.265 298.672 416.095 298.672 413.832C298.672 411.569 297.773 409.398 296.173 407.798C294.573 406.198 292.402 405.299 290.139 405.299Z" fill="black"/>
</g>
<defs>
<clipPath id="clip0_701_149">
<rect width="512" height="512" fill="white"/>
</clipPath>
</defs>
</svg>
