<svg width="599" height="377" viewBox="0 0 599 377" fill="none" xmlns="http://www.w3.org/2000/svg">
<path d="M136 87H127V108H136V87Z" fill="white"/>
<path d="M153 87H136V96H153V87Z" fill="white"/>
<path d="M174 160H138V169H174V160Z" fill="white"/>
<path d="M162 87H153V169H162V87Z" fill="white"/>
<path d="M263 160H215V169H263V160Z" fill="white"/>
<path d="M263 122H215V131H263V122Z" fill="white"/>
<path d="M263 87H215V96H263V87Z" fill="white"/>
<path d="M263 87H254V169H263V87Z" fill="white"/>
<path d="M351 160H304V169H351V160Z" fill="white"/>
<path d="M351 122H304V131H351V122Z" fill="white"/>
<path d="M351 87H304V96H351V87Z" fill="white"/>
<path d="M351 87H342V169H351V87Z" fill="white"/>
<path d="M401 87H393V114H401V87Z" fill="white"/>
<path d="M440 87H393V96H440V87Z" fill="white"/>
<path d="M440 87H431V169H440V87Z" fill="white"/>
<path d="M27 225.935H35.657L50.7101 263.507H51.2634L66.3152 225.935H74.9735V274.269H68.1859V239.292H67.7467L53.8027 274.198H48.1694L34.2267 239.269H33.7876V274.269H27V225.935ZM107.253 259.236V238.019H114.179V274.269H107.391V267.991H107.022C106.206 269.926 104.898 271.539 103.098 272.83C101.312 274.103 99.0883 274.741 96.4255 274.741C94.1475 274.741 92.1309 274.23 90.3769 273.207C88.6376 272.168 87.2684 270.634 86.268 268.605C85.2822 266.575 84.79 264.065 84.79 261.076V238.019H91.693V260.227C91.693 262.697 92.3617 264.664 93.7017 266.127C95.0404 267.59 96.7797 268.322 98.9184 268.322C100.212 268.322 101.496 267.991 102.774 267.33C104.068 266.67 105.137 265.67 105.983 264.333C106.844 262.995 107.268 261.296 107.253 259.236ZM150.026 246.869L143.769 248.001C143.507 247.183 143.092 246.405 142.523 245.666C141.968 244.925 141.215 244.32 140.26 243.848C139.306 243.376 138.113 243.14 136.681 243.14C134.727 243.14 133.095 243.588 131.787 244.484C130.479 245.366 129.825 246.507 129.825 247.908C129.825 249.119 130.264 250.094 131.141 250.833C132.018 251.572 133.435 252.179 135.389 252.651L141.022 253.973C144.285 254.743 146.717 255.932 148.317 257.536C149.918 259.141 150.718 261.225 150.718 263.79C150.718 265.962 150.103 267.897 148.871 269.596C147.655 271.28 145.954 272.601 143.769 273.561C141.6 274.521 139.083 275 136.22 275C132.249 275 129.009 274.135 126.501 272.404C123.992 270.658 122.453 268.18 121.883 264.97L128.555 263.932C128.97 265.709 129.825 267.055 131.118 267.968C132.411 268.864 134.096 269.313 136.173 269.313C138.437 269.313 140.245 268.833 141.6 267.873C142.953 266.897 143.631 265.709 143.631 264.31C143.631 263.177 143.216 262.225 142.384 261.453C141.568 260.683 140.314 260.101 138.621 259.708L132.619 258.362C129.31 257.592 126.862 256.364 125.277 254.681C123.707 252.997 122.922 250.864 122.922 248.285C122.922 246.144 123.507 244.273 124.677 242.668C125.847 241.062 127.463 239.812 129.525 238.915C131.588 238.003 133.95 237.547 136.612 237.547C140.445 237.547 143.461 238.396 145.662 240.095C147.863 241.779 149.317 244.037 150.026 246.869ZM158.307 274.269V238.019H165.21V274.269H158.307ZM161.794 232.425C160.593 232.425 159.562 232.016 158.7 231.198C157.853 230.364 157.43 229.372 157.43 228.224C157.43 227.06 157.853 226.068 158.7 225.251C159.562 224.416 160.593 224 161.794 224C162.995 224 164.017 224.416 164.864 225.251C165.726 226.068 166.156 227.06 166.156 228.224C166.156 229.372 165.726 230.364 164.864 231.198C164.017 232.016 162.995 232.425 161.794 232.425ZM189.434 275C186.001 275 183.046 274.207 180.568 272.617C178.106 271.012 176.213 268.802 174.889 265.985C173.566 263.169 172.904 259.944 172.904 256.309C172.904 252.628 173.581 249.378 174.935 246.562C176.29 243.73 178.198 241.519 180.66 239.93C183.122 238.342 186.024 237.547 189.363 237.547C192.057 237.547 194.458 238.058 196.566 239.081C198.676 240.087 200.375 241.503 201.669 243.329C202.977 245.153 203.755 247.285 204 249.724H197.283C196.913 248.026 196.066 246.562 194.743 245.335C193.435 244.107 191.68 243.494 189.479 243.494C187.555 243.494 185.87 244.012 184.424 245.051C182.992 246.074 181.877 247.537 181.077 249.442C180.275 251.33 179.876 253.564 179.876 256.143C179.876 258.787 180.269 261.068 181.053 262.989C181.838 264.908 182.946 266.394 184.378 267.448C185.824 268.502 187.525 269.03 189.479 269.03C190.787 269.03 191.973 268.785 193.035 268.298C194.112 267.794 195.013 267.079 195.736 266.15C196.475 265.222 196.989 264.105 197.283 262.799H204C203.755 265.144 203.008 267.236 201.76 269.077C200.515 270.917 198.844 272.365 196.752 273.42C194.673 274.474 192.234 275 189.434 275Z" fill="white"/>
<path d="M228.877 274.566V238.102H235.779V274.566H228.877ZM232.362 232.475C231.163 232.475 230.13 232.063 229.27 231.24C228.423 230.401 228 229.404 228 228.248C228 227.078 228.423 226.081 229.27 225.258C230.13 224.419 231.163 224 232.362 224C233.562 224 234.586 224.419 235.433 225.258C236.294 226.081 236.725 227.078 236.725 228.248C236.725 229.404 236.294 230.401 235.433 231.24C234.586 232.063 233.562 232.475 232.362 232.475ZM271.632 247.004L265.377 248.143C265.115 247.32 264.699 246.537 264.13 245.794C263.576 245.049 262.822 244.44 261.869 243.965C260.913 243.491 259.721 243.253 258.291 243.253C256.335 243.253 254.705 243.703 253.397 244.605C252.089 245.492 251.435 246.639 251.435 248.049C251.435 249.267 251.873 250.248 252.75 250.992C253.628 251.735 255.043 252.345 256.997 252.82L262.63 254.15C265.892 254.925 268.324 256.12 269.923 257.734C271.525 259.348 272.325 261.445 272.325 264.025C272.325 266.209 271.709 268.156 270.478 269.866C269.263 271.559 267.562 272.887 265.377 273.853C263.207 274.819 260.691 275.301 257.829 275.301C253.859 275.301 250.619 274.431 248.111 272.69C245.602 270.934 244.063 268.441 243.494 265.212L250.166 264.168C250.581 265.955 251.435 267.309 252.727 268.227C254.019 269.129 255.705 269.58 257.783 269.58C260.045 269.58 261.853 269.097 263.207 268.131C264.561 267.151 265.238 265.955 265.238 264.547C265.238 263.408 264.823 262.45 263.992 261.674C263.177 260.899 261.922 260.314 260.229 259.918L254.228 258.565C250.919 257.79 248.473 256.555 246.888 254.862C245.317 253.168 244.533 251.023 244.533 248.428C244.533 246.275 245.118 244.392 246.287 242.778C247.457 241.163 249.073 239.905 251.134 239.003C253.197 238.085 255.558 237.627 258.22 237.627C262.053 237.627 265.07 238.481 267.269 240.19C269.47 241.883 270.924 244.155 271.632 247.004ZM297.67 274.566V225.947H304.803V268.25H326.223V274.566H297.67ZM348.741 275.301C345.417 275.301 342.516 274.518 340.039 272.952C337.561 271.384 335.638 269.193 334.269 266.376C332.898 263.558 332.214 260.266 332.214 256.499C332.214 252.717 332.898 249.409 334.269 246.577C335.638 243.743 337.561 241.544 340.039 239.976C342.516 238.41 345.417 237.627 348.741 237.627C352.064 237.627 354.966 238.41 357.444 239.976C359.92 241.544 361.844 243.743 363.214 246.577C364.583 249.409 365.268 252.717 365.268 256.499C365.268 260.266 364.583 263.558 363.214 266.376C361.844 269.193 359.92 271.384 357.444 272.952C354.966 274.518 352.064 275.301 348.741 275.301ZM348.764 269.343C350.918 269.343 352.704 268.758 354.119 267.586C355.535 266.415 356.581 264.856 357.259 262.909C357.952 260.962 358.298 258.819 358.298 256.476C358.298 254.15 357.952 252.012 357.259 250.067C356.581 248.103 355.535 246.529 354.119 245.342C352.704 244.155 350.918 243.562 348.764 243.562C346.594 243.562 344.794 244.155 343.362 245.342C341.947 246.529 340.892 248.103 340.2 250.067C339.523 252.012 339.185 254.15 339.185 256.476C339.185 258.819 339.523 260.962 340.2 262.909C340.892 264.856 341.947 266.415 343.362 267.586C344.794 268.758 346.594 269.343 348.764 269.343ZM386.245 275.278C383.383 275.278 380.828 274.526 378.581 273.023C376.35 271.503 374.596 269.343 373.319 266.542C372.057 263.725 371.426 260.345 371.426 256.405C371.426 252.464 372.065 249.092 373.341 246.292C374.635 243.491 376.404 241.346 378.65 239.857C380.897 238.37 383.444 237.627 386.291 237.627C388.492 237.627 390.262 238.006 391.6 238.766C392.955 239.51 394.001 240.38 394.74 241.377C395.494 242.375 396.079 243.253 396.494 244.012H396.909V225.947H403.811V274.566H397.071V268.891H396.494C396.079 269.668 395.478 270.553 394.694 271.55C393.924 272.548 392.862 273.418 391.509 274.162C390.154 274.905 388.399 275.278 386.245 275.278ZM387.769 269.224C389.754 269.224 391.432 268.685 392.801 267.61C394.186 266.517 395.232 265.006 395.941 263.075C396.664 261.145 397.024 258.898 397.024 256.333C397.024 253.801 396.672 251.585 395.963 249.686C395.255 247.787 394.216 246.308 392.847 245.246C391.477 244.186 389.784 243.656 387.769 243.656C385.692 243.656 383.96 244.21 382.576 245.317C381.191 246.427 380.144 247.937 379.436 249.852C378.743 251.768 378.397 253.928 378.397 256.333C378.397 258.771 378.751 260.962 379.458 262.909C380.166 264.856 381.213 266.399 382.598 267.538C383.999 268.662 385.722 269.224 387.769 269.224ZM413.662 274.566V238.102H420.564V274.566H413.662ZM417.147 232.475C415.947 232.475 414.916 232.063 414.055 231.24C413.209 230.401 412.785 229.404 412.785 228.248C412.785 227.078 413.209 226.081 414.055 225.258C414.916 224.419 415.947 224 417.147 224C418.348 224 419.372 224.419 420.218 225.258C421.079 226.081 421.51 227.078 421.51 228.248C421.51 229.404 421.079 230.401 420.218 231.24C419.372 232.063 418.348 232.475 417.147 232.475ZM436.751 252.915V274.566H429.849V238.102H436.474V244.036H436.913C437.728 242.106 439.005 240.555 440.744 239.383C442.498 238.212 444.707 237.627 447.369 237.627C449.785 237.627 451.901 238.149 453.717 239.193C455.533 240.222 456.94 241.757 457.94 243.799C458.941 245.84 459.441 248.365 459.441 251.372V274.566H452.54V252.226C452.54 249.584 451.87 247.518 450.532 246.031C449.193 244.526 447.353 243.774 445.014 243.774C443.415 243.774 441.991 244.13 440.744 244.843C439.513 245.556 438.535 246.6 437.812 247.976C437.105 249.338 436.751 250.983 436.751 252.915ZM483.563 289C480.747 289 478.323 288.619 476.292 287.859C474.276 287.101 472.63 286.095 471.352 284.844C470.075 283.595 469.121 282.226 468.489 280.738L474.422 278.222C474.838 278.918 475.391 279.654 476.084 280.429C476.792 281.221 477.746 281.893 478.947 282.447C480.162 283.001 481.724 283.278 483.632 283.278C486.248 283.278 488.41 282.622 490.119 281.308C491.826 280.011 492.681 277.937 492.681 275.088V267.919H492.243C491.826 268.694 491.227 269.556 490.441 270.507C489.672 271.456 488.611 272.279 487.256 272.975C485.902 273.672 484.14 274.02 481.97 274.02C479.169 274.02 476.646 273.347 474.399 272.002C472.168 270.64 470.398 268.639 469.09 265.995C467.797 263.337 467.151 260.068 467.151 256.191C467.151 252.314 467.79 248.99 469.068 246.221C470.36 243.451 472.129 241.33 474.377 239.857C476.622 238.37 479.169 237.627 482.016 237.627C484.217 237.627 485.995 238.006 487.349 238.766C488.704 239.51 489.757 240.38 490.512 241.377C491.281 242.375 491.873 243.253 492.288 244.012H492.796V238.102H499.56V275.373C499.56 278.506 498.852 281.079 497.436 283.088C496.021 285.098 494.104 286.585 491.688 287.551C489.287 288.517 486.58 289 483.563 289ZM483.494 268.131C485.479 268.131 487.157 267.657 488.526 266.707C489.911 265.743 490.957 264.366 491.666 262.577C492.389 260.772 492.75 258.613 492.75 256.096C492.75 253.642 492.397 251.483 491.688 249.615C490.98 247.747 489.941 246.292 488.572 245.246C487.203 244.186 485.51 243.656 483.494 243.656C481.417 243.656 479.686 244.21 478.301 245.317C476.916 246.41 475.869 247.897 475.161 249.781C474.468 251.664 474.122 253.769 474.122 256.096C474.122 258.486 474.476 260.583 475.184 262.388C475.892 264.191 476.938 265.599 478.323 266.613C479.724 267.625 481.447 268.131 483.494 268.131ZM530.566 275.017C529.304 275.017 528.219 274.557 527.311 273.639C526.403 272.706 525.95 271.582 525.95 270.268C525.95 268.971 526.403 267.863 527.311 266.945C528.219 266.011 529.304 265.545 530.566 265.545C531.828 265.545 532.913 266.011 533.82 266.945C534.729 267.863 535.182 268.971 535.182 270.268C535.182 271.14 534.968 271.938 534.536 272.666C534.121 273.379 533.567 273.949 532.874 274.376C532.182 274.803 531.412 275.017 530.566 275.017ZM548.975 275.017C547.713 275.017 546.628 274.557 545.719 273.639C544.812 272.706 544.358 271.582 544.358 270.268C544.358 268.971 544.812 267.863 545.719 266.945C546.628 266.011 547.713 265.545 548.975 265.545C550.236 265.545 551.321 266.011 552.229 266.945C553.138 267.863 553.591 268.971 553.591 270.268C553.591 271.14 553.376 271.938 552.945 272.666C552.53 273.379 551.975 273.949 551.283 274.376C550.591 274.803 549.821 275.017 548.975 275.017ZM567.384 275.017C566.122 275.017 565.037 274.557 564.128 273.639C563.221 272.706 562.767 271.582 562.767 270.268C562.767 268.971 563.221 267.863 564.128 266.945C565.037 266.011 566.122 265.545 567.384 265.545C568.645 265.545 569.73 266.011 570.638 266.945C571.546 267.863 572 268.971 572 270.268C572 271.14 571.785 271.938 571.354 272.666C570.939 273.379 570.384 273.949 569.692 274.376C568.999 274.803 568.23 275.017 567.384 275.017Z" fill="#B4BABA"/>
</svg>
