<svg width="506" height="235" viewBox="0 0 506 235" fill="none" xmlns="http://www.w3.org/2000/svg">
<g clip-path="url(#clip0_613_170)">
<path d="M275.513 2.5H226.732C222.59 2.5 219.232 5.85786 219.232 10V93.1707C219.232 97.3128 222.59 100.671 226.732 100.671H275.513C279.655 100.671 283.013 97.3128 283.013 93.1707V10C283.013 5.85786 279.655 2.5 275.513 2.5Z" stroke="white" stroke-width="5"/>
<path d="M211 45.8538V98.9025C211 104.425 215.477 108.903 221 108.903H281.244C286.767 108.903 291.244 104.425 291.244 98.9025V45.8538" stroke="white" stroke-width="5" stroke-linecap="round"/>
<path d="M282.647 137.561H219.598C218.016 137.561 216.732 138.844 216.732 140.427V140.427C216.732 142.01 218.016 143.293 219.598 143.293H282.647C284.23 143.293 285.513 142.01 285.513 140.427C285.513 138.844 284.23 137.561 282.647 137.561Z" fill="white"/>
<path d="M248.256 111.769V140.427C248.256 142.01 249.539 143.293 251.122 143.293H251.122C252.704 143.293 253.988 142.01 253.988 140.427V111.769C253.988 110.186 252.704 108.903 251.122 108.903C249.539 108.903 248.256 110.186 248.256 111.769Z" fill="white"/>
<path d="M248.256 20.061V60.183C248.256 61.7657 249.539 63.0488 251.122 63.0488H251.122C252.704 63.0488 253.988 61.7657 253.988 60.183V20.061C253.988 18.4782 252.704 17.1951 251.122 17.1951C249.539 17.1951 248.256 18.4782 248.256 20.061Z" fill="white"/>
<path d="M239.658 31.5245V48.7196C239.658 50.3024 240.941 51.5854 242.524 51.5854H242.524C244.107 51.5854 245.39 50.3024 245.39 48.7196V31.5245C245.39 29.9417 244.107 28.6586 242.524 28.6586C240.941 28.6586 239.658 29.9417 239.658 31.5245Z" fill="white"/>
<path d="M256.854 31.5245V48.7196C256.854 50.3024 258.137 51.5854 259.72 51.5854H259.72C261.303 51.5854 262.586 50.3024 262.586 48.7196V31.5245C262.586 29.9417 261.303 28.6587 259.72 28.6587C258.137 28.6587 256.854 29.9417 256.854 31.5245Z" fill="white"/>
<path d="M265.451 25.7928V54.4513C265.451 56.034 266.734 57.3171 268.317 57.3171H268.317C269.9 57.3171 271.183 56.034 271.183 54.4513V25.7928C271.183 24.21 269.9 22.9269 268.317 22.9269C266.734 22.9269 265.451 24.21 265.451 25.7928Z" fill="white"/>
<path d="M231.061 25.7928V54.4513C231.061 56.0341 232.344 57.3171 233.927 57.3171H233.927C235.51 57.3171 236.793 56.0341 236.793 54.4513V25.7928C236.793 24.21 235.51 22.9269 233.927 22.9269C232.344 22.9269 231.061 24.21 231.061 25.7928Z" fill="white"/>
<path d="M11.4634 177.683H0V235H37.2561V212.073H25.7927V220.671H11.4634V177.683Z" fill="white"/>
<path d="M91.707 177.683H51.585V189.146H57.3168L51.585 194.878V235H91.707V223.537H63.0485V212.073H91.707V200.61H69.3146L63.0485 206.341V200.61V189.146H91.707V177.683Z" fill="white"/>
<path d="M149.024 177.683H108.902V189.146H114.634L108.902 194.878V235H149.024V223.537H120.366V212.073H149.024V200.61H126.632L120.366 206.341V200.61V189.146H149.024V177.683Z" fill="white"/>
<path d="M372.561 177.683H332.439V189.146H338.171L332.439 194.878V235H372.561V223.537H343.902V212.073H372.561V200.61H350.168L343.902 206.341V200.61V189.146H372.561V177.683Z" fill="#AAAAAA"/>
<path d="M398.354 235V189.146C398.354 187.236 399.5 183.415 404.085 183.415C408.671 183.415 425.101 183.415 432.744 183.415V212.073M432.744 212.073V235M432.744 212.073H418.414H404.085" stroke="#AAAAAA" stroke-width="12"/>
<path d="M157.622 189.146V177.683H197.744V189.146H183.415V235H171.951V189.146H157.622Z" fill="white"/>
<path d="M252.195 190.42V177.683H217.805C213.22 177.683 212.073 181.929 212.073 184.051V203.157C212.073 210.799 217.805 212.71 220.671 212.71H240.732V222.263H214.939C212.073 222.263 212.073 225.447 212.073 228.631C212.073 231.179 213.984 233.939 214.939 235H246.463C251.049 235 252.195 230.754 252.195 228.631V209.526C252.195 204.431 248.374 203.157 246.463 203.157H226.403C223.537 203.157 223.537 197.095 223.537 193.604C223.537 190.113 226.403 190.42 229.268 190.42H252.195Z" fill="#AAAAAA"/>
<path d="M275.122 198.89V235V227.262V214.366H300.915C303.781 214.366 309.512 213.334 309.512 209.207C309.512 205.08 309.512 197.171 309.512 191.152C309.512 188.573 308.366 183.415 303.781 183.415C299.195 183.415 286.585 183.415 275.122 183.415V189.146V192.012V198.89Z" stroke="#AAAAAA" stroke-width="12"/>
<path d="M467.134 180.549V209.207M467.134 209.207V235M467.134 209.207L501.524 180.549M467.134 209.207H492.927C494.837 210.163 498.658 213.793 498.658 220.671C498.658 227.549 498.658 233.089 498.658 235" stroke="#AAAAAA" stroke-width="12"/>
</g>
<defs>
<clipPath id="clip0_613_170">
<rect width="506" height="235" fill="white"/>
</clipPath>
</defs>
</svg>
