<svg width="583" height="362" viewBox="0 0 583 362" fill="none" xmlns="http://www.w3.org/2000/svg">
<rect x="187" y="130" width="6.67664" height="14.9998" fill="white"/>
<rect x="193.679" y="130" width="13.3533" height="6.42847" fill="white"/>
<rect x="195.913" y="183.572" width="26.7065" height="6.42847" fill="white"/>
<rect x="207.037" y="130" width="6.67664" height="59.999" fill="white"/>
<rect x="253.763" y="183.572" width="35.6087" height="6.42847" fill="white"/>
<rect x="253.763" y="155.722" width="35.6087" height="6.42847" fill="white"/>
<rect x="253.763" y="130" width="35.6087" height="6.42847" fill="white"/>
<rect x="282.708" y="130" width="6.67664" height="59.999" fill="white"/>
<rect x="320.525" y="183.572" width="35.6087" height="6.42847" fill="white"/>
<rect x="320.525" y="155.722" width="35.6087" height="6.42847" fill="white"/>
<rect x="320.525" y="130" width="35.6087" height="6.42847" fill="white"/>
<rect x="349.469" y="130" width="6.67664" height="59.999" fill="white"/>
<rect x="387.307" y="130" width="6.67664" height="19.2854" fill="white"/>
<rect x="387.307" y="130" width="35.6087" height="6.42847" fill="white"/>
<rect x="416.232" y="130" width="6.67664" height="59.999" fill="white"/>
<path d="M111.915 232.364H118.44L129.786 260.065H130.203L141.548 232.364H148.074V268H142.958V242.212H142.627L132.117 267.948H127.871L117.362 242.195H117.031V268H111.915V232.364ZM172.404 256.916V241.273H177.624V268H172.508V263.371H172.23C171.615 264.798 170.629 265.987 169.272 266.939C167.926 267.878 166.25 268.348 164.243 268.348C162.526 268.348 161.006 267.971 159.684 267.217C158.373 266.451 157.341 265.32 156.587 263.824C155.844 262.327 155.473 260.477 155.473 258.273V241.273H160.676V257.647C160.676 259.468 161.18 260.918 162.19 261.997C163.199 263.076 164.51 263.615 166.122 263.615C167.097 263.615 168.065 263.371 169.028 262.884C170.003 262.397 170.809 261.66 171.447 260.674C172.096 259.688 172.415 258.435 172.404 256.916ZM204.643 247.798L199.927 248.633C199.73 248.03 199.417 247.456 198.988 246.911C198.57 246.365 198.002 245.919 197.282 245.571C196.563 245.223 195.664 245.049 194.585 245.049C193.112 245.049 191.882 245.379 190.896 246.04C189.91 246.69 189.417 247.531 189.417 248.564C189.417 249.457 189.748 250.176 190.409 250.721C191.07 251.266 192.138 251.713 193.611 252.061L197.857 253.036C200.316 253.604 202.149 254.48 203.355 255.663C204.562 256.846 205.165 258.383 205.165 260.274C205.165 261.875 204.701 263.302 203.773 264.555C202.856 265.796 201.574 266.77 199.927 267.478C198.292 268.186 196.395 268.539 194.237 268.539C191.244 268.539 188.802 267.901 186.912 266.625C185.021 265.338 183.861 263.511 183.431 261.144L188.46 260.379C188.773 261.689 189.417 262.681 190.392 263.354C191.366 264.015 192.636 264.346 194.202 264.346C195.908 264.346 197.271 263.992 198.292 263.284C199.312 262.565 199.823 261.689 199.823 260.657C199.823 259.822 199.51 259.12 198.883 258.551C198.268 257.983 197.323 257.554 196.047 257.264L191.523 256.272C189.029 255.704 187.184 254.799 185.989 253.558C184.806 252.316 184.214 250.744 184.214 248.842C184.214 247.264 184.655 245.884 185.537 244.701C186.419 243.517 187.637 242.595 189.191 241.934C190.746 241.261 192.526 240.925 194.533 240.925C197.422 240.925 199.695 241.551 201.354 242.804C203.013 244.045 204.109 245.71 204.643 247.798ZM210.885 268V241.273H216.088V268H210.885ZM213.513 237.149C212.608 237.149 211.831 236.847 211.181 236.244C210.543 235.629 210.224 234.898 210.224 234.051C210.224 233.193 210.543 232.462 211.181 231.859C211.831 231.244 212.608 230.937 213.513 230.937C214.418 230.937 215.189 231.244 215.827 231.859C216.477 232.462 216.801 233.193 216.801 234.051C216.801 234.898 216.477 235.629 215.827 236.244C215.189 236.847 214.418 237.149 213.513 237.149ZM234.346 268.539C231.759 268.539 229.531 267.954 227.664 266.782C225.808 265.599 224.381 263.969 223.383 261.892C222.386 259.816 221.887 257.438 221.887 254.758C221.887 252.044 222.397 249.648 223.418 247.572C224.439 245.484 225.877 243.854 227.733 242.682C229.589 241.511 231.776 240.925 234.293 240.925C236.323 240.925 238.133 241.302 239.722 242.056C241.312 242.798 242.593 243.842 243.568 245.188C244.554 246.533 245.14 248.105 245.325 249.903H240.262C239.983 248.651 239.345 247.572 238.348 246.667C237.362 245.762 236.039 245.31 234.38 245.31C232.93 245.31 231.66 245.692 230.57 246.458C229.491 247.212 228.65 248.291 228.047 249.695C227.443 251.087 227.142 252.734 227.142 254.636C227.142 256.585 227.438 258.267 228.029 259.683C228.621 261.098 229.456 262.194 230.535 262.971C231.625 263.748 232.907 264.137 234.38 264.137C235.366 264.137 236.26 263.957 237.06 263.598C237.872 263.226 238.551 262.699 239.096 262.014C239.653 261.33 240.041 260.506 240.262 259.543H245.325C245.14 261.272 244.577 262.815 243.637 264.172C242.698 265.529 241.439 266.596 239.862 267.374C238.295 268.151 236.457 268.539 234.346 268.539Z" fill="white"/>
<path d="M263.857 268V241.273H269.06V268H263.857ZM266.484 237.149C265.58 237.149 264.802 236.847 264.153 236.244C263.515 235.629 263.196 234.898 263.196 234.051C263.196 233.193 263.515 232.462 264.153 231.859C264.802 231.244 265.58 230.937 266.484 230.937C267.389 230.937 268.161 231.244 268.799 231.859C269.448 232.462 269.773 233.193 269.773 234.051C269.773 234.898 269.448 235.629 268.799 236.244C268.161 236.847 267.389 237.149 266.484 237.149ZM296.087 247.798L291.372 248.633C291.174 248.03 290.861 247.456 290.432 246.911C290.014 246.365 289.446 245.919 288.727 245.571C288.007 245.223 287.108 245.049 286.03 245.049C284.556 245.049 283.327 245.379 282.341 246.04C281.355 246.69 280.862 247.531 280.862 248.564C280.862 249.457 281.192 250.176 281.853 250.721C282.515 251.266 283.582 251.713 285.055 252.061L289.301 253.036C291.76 253.604 293.593 254.48 294.799 255.663C296.006 256.846 296.609 258.383 296.609 260.274C296.609 261.875 296.145 263.302 295.217 264.555C294.301 265.796 293.019 266.77 291.372 267.478C289.736 268.186 287.839 268.539 285.682 268.539C282.689 268.539 280.247 267.901 278.356 266.625C276.465 265.338 275.305 263.511 274.876 261.144L279.905 260.379C280.218 261.689 280.862 262.681 281.836 263.354C282.81 264.015 284.081 264.346 285.647 264.346C287.352 264.346 288.715 263.992 289.736 263.284C290.757 262.565 291.267 261.689 291.267 260.657C291.267 259.822 290.954 259.12 290.328 258.551C289.713 257.983 288.767 257.554 287.491 257.264L282.967 256.272C280.473 255.704 278.629 254.799 277.434 253.558C276.25 252.316 275.659 250.744 275.659 248.842C275.659 247.264 276.1 245.884 276.981 244.701C277.863 243.517 279.081 242.595 280.635 241.934C282.19 241.261 283.97 240.925 285.977 240.925C288.866 240.925 291.14 241.551 292.798 242.804C294.457 244.045 295.553 245.71 296.087 247.798ZM315.715 268V232.364H321.092V263.371H337.239V268H315.715ZM354.214 268.539C351.708 268.539 349.521 267.965 347.654 266.817C345.786 265.668 344.336 264.062 343.304 261.997C342.271 259.932 341.755 257.519 341.755 254.758C341.755 251.986 342.271 249.561 343.304 247.485C344.336 245.408 345.786 243.796 347.654 242.647C349.521 241.499 351.708 240.925 354.214 240.925C356.719 240.925 358.906 241.499 360.774 242.647C362.641 243.796 364.091 245.408 365.124 247.485C366.156 249.561 366.672 251.986 366.672 254.758C366.672 257.519 366.156 259.932 365.124 261.997C364.091 264.062 362.641 265.668 360.774 266.817C358.906 267.965 356.719 268.539 354.214 268.539ZM354.231 264.172C355.855 264.172 357.201 263.743 358.268 262.884C359.335 262.026 360.124 260.883 360.635 259.456C361.157 258.029 361.418 256.458 361.418 254.741C361.418 253.036 361.157 251.469 360.635 250.043C360.124 248.604 359.335 247.45 358.268 246.58C357.201 245.71 355.855 245.275 354.231 245.275C352.595 245.275 351.238 245.71 350.159 246.58C349.092 247.45 348.297 248.604 347.775 250.043C347.265 251.469 347.01 253.036 347.01 254.741C347.01 256.458 347.265 258.029 347.775 259.456C348.297 260.883 349.092 262.026 350.159 262.884C351.238 263.743 352.595 264.172 354.231 264.172ZM382.485 268.522C380.328 268.522 378.402 267.971 376.708 266.869C375.026 265.755 373.704 264.172 372.741 262.119C371.79 260.054 371.314 257.577 371.314 254.689C371.314 251.8 371.796 249.329 372.758 247.276C373.733 245.223 375.067 243.651 376.76 242.56C378.454 241.47 380.374 240.925 382.52 240.925C384.179 240.925 385.513 241.203 386.522 241.76C387.543 242.305 388.332 242.943 388.889 243.674C389.457 244.405 389.898 245.049 390.211 245.605H390.524V232.364H395.727V268H390.646V263.841H390.211C389.898 264.41 389.445 265.059 388.854 265.79C388.274 266.521 387.473 267.159 386.453 267.704C385.432 268.249 384.109 268.522 382.485 268.522ZM383.634 264.085C385.13 264.085 386.395 263.69 387.427 262.902C388.471 262.101 389.26 260.993 389.794 259.578C390.339 258.163 390.611 256.516 390.611 254.636C390.611 252.78 390.345 251.156 389.811 249.764C389.277 248.372 388.494 247.288 387.462 246.51C386.429 245.733 385.153 245.344 383.634 245.344C382.068 245.344 380.763 245.75 379.719 246.562C378.675 247.375 377.886 248.482 377.352 249.886C376.83 251.29 376.569 252.873 376.569 254.636C376.569 256.423 376.836 258.029 377.369 259.456C377.903 260.883 378.692 262.014 379.736 262.849C380.792 263.673 382.091 264.085 383.634 264.085ZM403.153 268V241.273H408.356V268H403.153ZM405.78 237.149C404.875 237.149 404.098 236.847 403.449 236.244C402.811 235.629 402.492 234.898 402.492 234.051C402.492 233.193 402.811 232.462 403.449 231.859C404.098 231.244 404.875 230.937 405.78 230.937C406.685 230.937 407.457 231.244 408.095 231.859C408.744 232.462 409.069 233.193 409.069 234.051C409.069 234.898 408.744 235.629 408.095 236.244C407.457 236.847 406.685 237.149 405.78 237.149ZM420.558 252.131V268H415.355V241.273H420.349V245.623H420.68C421.294 244.208 422.257 243.071 423.568 242.212C424.89 241.354 426.555 240.925 428.562 240.925C430.383 240.925 431.978 241.308 433.347 242.073C434.716 242.827 435.777 243.952 436.531 245.449C437.285 246.945 437.662 248.796 437.662 251V268H432.46V251.626C432.46 249.689 431.955 248.175 430.946 247.085C429.937 245.982 428.55 245.431 426.787 245.431C425.581 245.431 424.508 245.692 423.568 246.214C422.64 246.737 421.903 247.502 421.358 248.511C420.825 249.509 420.558 250.715 420.558 252.131ZM455.846 278.58C453.723 278.58 451.896 278.301 450.365 277.744C448.845 277.188 447.604 276.451 446.641 275.534C445.678 274.618 444.959 273.615 444.483 272.524L448.955 270.68C449.269 271.19 449.686 271.73 450.208 272.298C450.742 272.878 451.461 273.371 452.366 273.777C453.282 274.183 454.46 274.386 455.898 274.386C457.87 274.386 459.5 273.905 460.788 272.942C462.075 271.991 462.719 270.471 462.719 268.383V263.128H462.389C462.075 263.696 461.623 264.328 461.031 265.025C460.451 265.721 459.651 266.324 458.63 266.834C457.609 267.345 456.281 267.6 454.645 267.6C452.534 267.6 450.632 267.107 448.938 266.121C447.256 265.123 445.922 263.656 444.936 261.718C443.961 259.77 443.474 257.374 443.474 254.532C443.474 251.69 443.956 249.254 444.919 247.224C445.893 245.194 447.227 243.639 448.921 242.56C450.614 241.47 452.534 240.925 454.68 240.925C456.339 240.925 457.679 241.203 458.7 241.76C459.721 242.305 460.515 242.943 461.084 243.674C461.664 244.405 462.11 245.049 462.423 245.605H462.806V241.273H467.905V268.592C467.905 270.888 467.371 272.774 466.304 274.247C465.237 275.72 463.792 276.81 461.971 277.518C460.161 278.226 458.12 278.58 455.846 278.58ZM455.794 263.284C457.29 263.284 458.555 262.936 459.587 262.24C460.631 261.533 461.42 260.524 461.954 259.213C462.499 257.89 462.771 256.307 462.771 254.462C462.771 252.664 462.505 251.081 461.971 249.712C461.437 248.343 460.654 247.276 459.622 246.51C458.59 245.733 457.314 245.344 455.794 245.344C454.228 245.344 452.923 245.75 451.879 246.562C450.835 247.363 450.046 248.453 449.512 249.834C448.99 251.214 448.729 252.757 448.729 254.462C448.729 256.214 448.996 257.751 449.53 259.074C450.063 260.396 450.852 261.428 451.896 262.171C452.952 262.913 454.251 263.284 455.794 263.284ZM491.278 268.331C490.327 268.331 489.509 267.994 488.824 267.321C488.14 266.637 487.798 265.813 487.798 264.85C487.798 263.899 488.14 263.087 488.824 262.414C489.509 261.73 490.327 261.388 491.278 261.388C492.229 261.388 493.047 261.73 493.731 262.414C494.416 263.087 494.758 263.899 494.758 264.85C494.758 265.489 494.596 266.074 494.271 266.608C493.958 267.13 493.54 267.548 493.018 267.861C492.496 268.174 491.916 268.331 491.278 268.331ZM505.155 268.331C504.204 268.331 503.386 267.994 502.701 267.321C502.017 266.637 501.675 265.813 501.675 264.85C501.675 263.899 502.017 263.087 502.701 262.414C503.386 261.73 504.204 261.388 505.155 261.388C506.106 261.388 506.924 261.73 507.608 262.414C508.293 263.087 508.635 263.899 508.635 264.85C508.635 265.489 508.473 266.074 508.148 266.608C507.835 267.13 507.417 267.548 506.895 267.861C506.373 268.174 505.793 268.331 505.155 268.331ZM519.032 268.331C518.081 268.331 517.263 267.994 516.578 267.321C515.894 266.637 515.552 265.813 515.552 264.85C515.552 263.899 515.894 263.087 516.578 262.414C517.263 261.73 518.081 261.388 519.032 261.388C519.983 261.388 520.801 261.73 521.485 262.414C522.17 263.087 522.512 263.899 522.512 264.85C522.512 265.489 522.35 266.074 522.025 266.608C521.712 267.13 521.294 267.548 520.772 267.861C520.25 268.174 519.67 268.331 519.032 268.331Z" fill="#4E7E2F"/>
</svg>
