<svg width="506" height="235" viewBox="0 0 506 235" fill="none" xmlns="http://www.w3.org/2000/svg">
<rect x="219.232" y="2.5" width="63.7805" height="98.1707" rx="7.5" stroke="white" stroke-width="5"/>
<path d="M211 45.8538V98.9025C211 104.425 215.477 108.903 221 108.903H281.244C286.767 108.903 291.244 104.425 291.244 98.9025V45.8538" stroke="white" stroke-width="5" stroke-linecap="round"/>
<rect x="216.732" y="137.561" width="68.7805" height="5.73171" rx="2.86585" fill="white"/>
<rect x="248.256" y="143.293" width="34.3902" height="5.73171" rx="2.86585" transform="rotate(-90 248.256 143.293)" fill="white"/>
<rect x="248.256" y="63.0488" width="45.8537" height="5.73171" rx="2.86585" transform="rotate(-90 248.256 63.0488)" fill="white"/>
<rect x="239.658" y="51.5854" width="22.9268" height="5.73171" rx="2.86585" transform="rotate(-90 239.658 51.5854)" fill="white"/>
<rect x="256.854" y="51.5854" width="22.9268" height="5.73171" rx="2.86585" transform="rotate(-90 256.854 51.5854)" fill="white"/>
<rect x="265.451" y="57.3171" width="34.3902" height="5.73171" rx="2.86585" transform="rotate(-90 265.451 57.3171)" fill="white"/>
<rect x="231.061" y="57.3171" width="34.3902" height="5.73171" rx="2.86585" transform="rotate(-90 231.061 57.3171)" fill="white"/>
<path d="M11.4634 177.683H0V235H37.2561V212.073H25.7927V220.671H11.4634V177.683Z" fill="white"/>
<path d="M91.7074 177.683H51.5854V189.146H57.3172L51.5854 194.878V235H91.7074V223.537H63.0489V212.073H91.7074V200.61H69.315L63.0489 206.341V200.61V189.146H91.7074V177.683Z" fill="white"/>
<path d="M149.024 177.683H108.902V189.146H114.634L108.902 194.878V235H149.024V223.537H120.366V212.073H149.024V200.61H126.632L120.366 206.341V200.61V189.146H149.024V177.683Z" fill="white"/>
<path d="M372.561 177.683H332.439V189.146H338.171L332.439 194.878V235H372.561V223.537H343.902V212.073H372.561V200.61H350.168L343.902 206.341V200.61V189.146H372.561V177.683Z" fill="#28D163"/>
<path d="M398.354 235V189.146C398.354 187.236 399.5 183.415 404.085 183.415C408.671 183.415 425.101 183.415 432.744 183.415V212.073M432.744 235V212.073M432.744 212.073H418.414H404.085" stroke="#28D163" stroke-width="12"/>
<path d="M157.622 189.146V177.683H197.744V189.146H183.415V235H171.951V189.146H157.622Z" fill="white"/>
<path d="M252.195 190.42V177.683H217.805C213.22 177.683 212.073 181.929 212.073 184.051V203.157C212.073 210.799 217.805 212.71 220.671 212.71H240.732V222.263H214.939C212.073 222.263 212.073 225.447 212.073 228.631C212.073 231.179 213.984 233.939 214.939 235H246.463C251.049 235 252.195 230.754 252.195 228.631V209.526C252.195 204.431 248.374 203.157 246.463 203.157H226.403C223.537 203.157 223.537 197.095 223.537 193.604C223.537 190.113 226.403 190.42 229.268 190.42H252.195Z" fill="#28D163"/>
<path d="M275.122 198.89V235V227.262V214.366H300.915C303.781 214.366 309.512 213.334 309.512 209.207C309.512 205.08 309.512 197.171 309.512 191.152C309.512 188.573 308.366 183.415 303.781 183.415C299.195 183.415 286.585 183.415 275.122 183.415V189.146V192.012V198.89Z" stroke="#28D163" stroke-width="12"/>
<path d="M467.134 180.549V209.207M467.134 235V209.207M467.134 209.207L501.524 180.549M467.134 209.207H492.927C494.837 210.163 498.658 213.793 498.658 220.671C498.658 227.549 498.658 233.089 498.658 235" stroke="#28D163" stroke-width="12"/>
</svg>
