<svg width="512" height="512" viewBox="0 0 512 512" fill="none" xmlns="http://www.w3.org/2000/svg">
<g filter="url(#filter0_d_701_154)">
<path d="M360.608 377.278C357.078 373.729 353.031 370.6 348.263 368.324C325.677 357.517 298.903 367.246 288.263 389.52C277.549 411.945 287 438.828 309.474 449.535C331.813 460.181 358.748 450.747 369.474 428.339V428.324L405.582 352.709L421.798 398.573L450.069 388.583L409.713 274.428L360.608 377.278ZM277.476 159.046C269.394 152.778 259.944 148.45 249.547 146.943C216.758 142.254 186.317 164.79 181.549 197.685C176.235 234.077 204.596 266.313 240.963 266.313C270.26 266.313 295.953 244.765 300.289 214.941C300.298 214.881 300.289 214.822 300.298 214.762L300.318 214.766L322.232 49.176L477.187 33.663L463.077 140.447C455.156 134.291 445.764 129.836 435.146 128.296C402.561 123.572 371.936 146.013 367.148 179.038C361.834 215.43 390.195 247.666 426.562 247.666C455.859 247.666 481.552 226.118 485.888 196.279C485.897 196.219 485.886 196.16 485.895 196.1L485.917 196.104L511.934 0L295.631 21.724L277.476 159.046ZM44.4214 512C72.5884 512 93.7594 486.395 88.7034 458.87L69.1774 351.376L154.64 313.012L165.194 371.573C160.206 370.775 155.088 370.657 149.952 371.595C125.535 376.074 109.304 399.453 113.8 423.963C117.858 446.084 137.133 460.848 157.965 460.848C186.196 460.848 207.389 435.373 202.32 407.733L177.227 269.799L35.4564 333.739L51.5884 422.75C46.6404 421.943 41.5214 421.778 36.3214 422.732C11.9164 427.2 -3.64757 450.711 0.834428 475.115C4.80443 496.78 23.1374 512 44.4214 512ZM45.1144 234.115C65.8074 247.815 93.7144 242.234 107.472 221.459C114.122 211.439 116.466 199.428 114.078 187.65L97.3934 105.531L137.94 132.411L154.522 107.391L53.5954 40.521L76.2694 152.26C57.5654 149.576 41.4704 158.134 32.4574 171.742C18.6704 192.561 24.4634 220.439 45.1144 234.115Z" fill="#24BF6D"/>
</g>
<defs>
<filter id="filter0_d_701_154" x="-3.93359" y="0" width="519.867" height="520" filterUnits="userSpaceOnUse" color-interpolation-filters="sRGB">
<feFlood flood-opacity="0" result="BackgroundImageFix"/>
<feColorMatrix in="SourceAlpha" type="matrix" values="0 0 0 0 0 0 0 0 0 0 0 0 0 0 0 0 0 0 127 0" result="hardAlpha"/>
<feOffset dy="4"/>
<feGaussianBlur stdDeviation="2"/>
<feComposite in2="hardAlpha" operator="out"/>
<feColorMatrix type="matrix" values="0 0 0 0 0 0 0 0 0 0 0 0 0 0 0 0 0 0 0.25 0"/>
<feBlend mode="normal" in2="BackgroundImageFix" result="effect1_dropShadow_701_154"/>
<feBlend mode="normal" in="SourceGraphic" in2="effect1_dropShadow_701_154" result="shape"/>
</filter>
</defs>
</svg>
