<svg width="512" height="504" viewBox="0 0 512 504" fill="none" xmlns="http://www.w3.org/2000/svg">
<path d="M511.667 283.755C511.998 282.268 511.919 280.72 511.437 279.275C505.585 194.727 435.625 128.939 350.877 128.289C322.592 33.4756 222.8 -20.4581 127.986 7.82714C33.1715 36.1124 -20.7611 135.904 7.52304 230.718C14.8827 255.388 27.4729 278.182 44.436 297.548C61.3991 316.914 82.3367 332.396 105.823 342.941C89.0148 351.933 73.3998 362.995 59.3426 375.87L34.9976 398.184C24.5744 407.737 23.8683 423.93 33.4211 434.353C34.4888 435.518 35.6621 436.582 36.9261 437.53L64.3687 458.112C103.87 487.613 151.828 503.598 201.129 503.696H225.551C274.847 503.594 322.798 487.609 362.295 458.112L371.954 450.868C452.246 439.994 512.104 371.392 512 290.368C512 288.132 511.753 285.965 511.667 283.755ZM466.919 205.036C482.365 226.075 491.803 250.916 494.225 276.903L486.989 280.521L445.092 252.592L458.702 205.036H466.919ZM409.184 158.147C425.319 165.374 440.003 175.48 452.515 187.97H452.268C450.414 187.972 448.61 188.577 447.131 189.695C445.651 190.813 444.576 192.382 444.068 194.165L428.077 250.126L400.66 262.772L358.403 234.604V200.949L405.967 167.67C407.442 166.627 408.549 165.144 409.127 163.432C409.705 161.721 409.725 159.87 409.184 158.147ZM216.438 198.492C215.523 199.239 214.773 200.169 214.236 201.222C214.137 201.527 214.054 201.838 213.989 202.152L191.273 179.437L218.383 152.327C225.594 158.882 233.324 164.841 241.5 170.144H241.482C232.062 178.59 223.658 188.103 216.438 198.492ZM205.208 217.495C195.531 236.642 189.784 257.531 188.304 278.933C180.409 256.59 168.125 236.052 152.175 218.527L179.191 191.477L205.208 217.495ZM225.355 216.317L232.181 219.731L245.954 254.153L211.634 288.516L205.046 285.222C205.883 260.907 212.871 237.2 225.355 216.317ZM209.517 306.496C211.119 307.295 212.933 307.57 214.7 307.283C216.467 306.995 218.099 306.158 219.365 304.891L258.054 266.211L291.615 279.633L307.529 335.329C307.684 335.761 307.879 336.178 308.109 336.575C278.368 322.975 246.044 315.946 213.34 315.967C211.326 315.967 209.321 316.053 207.307 316.104L207.29 316.061C206.608 312.238 205.959 308.381 205.584 304.524L209.517 306.496ZM297.673 263.71L262.568 249.665L246.867 210.412C246.091 208.468 244.627 206.877 242.754 205.941L235.074 202.084C249.671 183.086 268.728 167.98 290.557 158.104C290.016 159.828 290.036 161.678 290.614 163.39C291.192 165.101 292.298 166.585 293.774 167.627L341.337 200.949V234.604L297.673 263.71ZM349.87 249.409L390.266 276.399C390.335 276.578 390.317 276.766 390.403 276.945C390.56 277.241 390.737 277.527 390.932 277.799L377.569 324.5H322.172L308.587 276.945L349.87 249.409ZM388.722 150.749V150.791L390.94 157.37L349.87 186.084L308.8 157.328L311.019 150.749C336.411 143.49 363.329 143.49 388.722 150.749ZM333.333 129.092C305.26 131.995 278.443 142.226 255.571 158.761C246.628 153.411 238.222 147.213 230.466 140.253L299.678 71.0662C314.824 87.847 326.288 107.613 333.333 129.092ZM287.51 59.0601L218.392 128.179C194.23 101.39 179.725 67.2877 177.185 31.3018L176.195 17.5293C217.229 16.7263 257.03 31.5756 287.51 59.0601ZM159.18 18.7752L160.162 32.5135C162.979 72.6031 179.234 110.571 206.3 140.279L179.208 167.371L70.9051 59.0601C95.4908 36.8788 126.314 22.8123 159.18 18.7752ZM58.8392 71.126L167.142 179.437L140.117 206.462C110.382 179.406 72.3894 163.171 32.2841 160.383L18.5372 159.401C22.5797 126.534 36.6522 95.7099 58.8392 71.126ZM17.2999 176.425L31.0724 177.406C67.0689 179.922 101.19 194.402 128.009 218.544L58.8136 287.748C31.3364 257.261 16.4936 217.459 17.2999 176.425ZM70.7856 299.934L140.117 230.636C162.106 255.136 176.076 285.775 180.155 318.442C161.949 321.109 144.134 325.98 127.104 332.948C106.292 325.865 87.1328 314.634 70.7856 299.934ZM380.701 422.819C380.344 423.207 379.953 423.562 379.532 423.878L352.046 444.469C315.508 471.753 271.152 486.537 225.551 486.631H201.129C155.529 486.537 111.172 471.753 74.634 444.469L47.1829 423.878C46.1799 423.126 45.355 422.162 44.7668 421.055C44.1786 419.948 43.8415 418.725 43.7796 417.473C43.7177 416.221 43.9324 414.97 44.4086 413.811C44.8847 412.651 45.6105 411.61 46.5344 410.763L70.8368 388.449C88.2093 372.616 108.111 359.804 129.715 350.545C131.011 350.303 132.232 349.763 133.282 348.966C208.839 317.759 295.633 333.156 355.844 388.449L380.18 410.763C381.848 412.293 382.84 414.422 382.937 416.683C383.035 418.944 382.23 421.151 380.701 422.819ZM367.338 375.87C352.549 362.328 336.041 350.794 318.238 341.567H380.47L399.243 360.34L383.866 391.059L367.338 375.87ZM397.716 427.248C399.414 423.595 400.179 419.578 399.942 415.557C399.705 411.536 398.474 407.637 396.359 404.208L414.876 367.166H464.061L467.858 374.761C450.473 399.094 425.965 417.433 397.716 427.248ZM478.354 357.635L477.014 354.819C476.302 353.394 475.205 352.196 473.848 351.362C472.491 350.529 470.927 350.091 469.334 350.1H413.135L393.586 330.55L408.63 277.892L434.442 265.989L481.665 297.467C482.914 298.299 484.361 298.787 485.859 298.882C487.357 298.976 488.854 298.674 490.198 298.005L494.661 295.769C493.913 317.35 488.341 338.489 478.354 357.635Z" fill="#24BF6D"/>
<path d="M290.139 401.299H281.606V392.766C281.606 390.502 280.707 388.332 279.107 386.732C277.507 385.131 275.336 384.232 273.073 384.232C270.81 384.232 268.639 385.131 267.039 386.732C265.439 388.332 264.54 390.502 264.54 392.766V401.299H247.474V392.766C247.474 390.502 246.575 388.332 244.974 386.732C243.374 385.131 241.204 384.232 238.94 384.232C236.677 384.232 234.507 385.131 232.907 386.732C231.306 388.332 230.407 390.502 230.407 392.766V401.299H213.341V392.766C213.341 390.502 212.442 388.332 210.842 386.732C209.241 385.131 207.071 384.232 204.808 384.232C202.545 384.232 200.374 385.131 198.774 386.732C197.174 388.332 196.275 390.502 196.275 392.766V401.299H179.208V392.766C179.208 390.502 178.309 388.332 176.709 386.732C175.109 385.131 172.938 384.232 170.675 384.232C168.412 384.232 166.242 385.131 164.641 386.732C163.041 388.332 162.142 390.502 162.142 392.766V401.299H145.076V392.766C145.076 390.502 144.177 388.332 142.577 386.732C140.976 385.131 138.806 384.232 136.543 384.232C134.28 384.232 132.109 385.131 130.509 386.732C128.909 388.332 128.01 390.502 128.01 392.766V401.299H119.476C117.213 401.299 115.043 402.198 113.443 403.798C111.842 405.398 110.943 407.569 110.943 409.832C110.943 412.095 111.842 414.265 113.443 415.866C115.043 417.466 117.213 418.365 119.476 418.365H128.01V426.898C128.01 429.161 128.909 431.332 130.509 432.932C132.109 434.532 134.28 435.431 136.543 435.431C138.806 435.431 140.976 434.532 142.577 432.932C144.177 431.332 145.076 429.161 145.076 426.898V418.365H162.142V426.898C162.142 429.161 163.041 431.332 164.641 432.932C166.242 434.532 168.412 435.431 170.675 435.431C172.938 435.431 175.109 434.532 176.709 432.932C178.309 431.332 179.208 429.161 179.208 426.898V418.365H196.275V426.898C196.275 429.161 197.174 431.332 198.774 432.932C200.374 434.532 202.545 435.431 204.808 435.431C207.071 435.431 209.241 434.532 210.842 432.932C212.442 431.332 213.341 429.161 213.341 426.898V418.365H230.407V426.898C230.407 429.161 231.306 431.332 232.907 432.932C234.507 434.532 236.677 435.431 238.94 435.431C241.204 435.431 243.374 434.532 244.974 432.932C246.575 431.332 247.474 429.161 247.474 426.898V418.365H264.54V426.898C264.54 429.161 265.439 431.332 267.039 432.932C268.639 434.532 270.81 435.431 273.073 435.431C275.336 435.431 277.507 434.532 279.107 432.932C280.707 431.332 281.606 429.161 281.606 426.898V418.365H290.139C292.402 418.365 294.573 417.466 296.173 415.866C297.773 414.265 298.672 412.095 298.672 409.832C298.672 407.569 297.773 405.398 296.173 403.798C294.573 402.198 292.402 401.299 290.139 401.299Z" fill="#24BF6D"/>
</svg>
